<?xml version='1.0' encoding='UTF-8'?>
<svg width="73mm" height="73mm" version="1.1" viewBox="0 0 73 73" xmlns="http://www.w3.org/2000/svg"><path d="M 57 57 L 57 58 L 58 58 L 58 57 z M 47 7 L 47 8 L 48 8 L 48 7 z M 11 29 L 11 30 L 12 30 L 12 29 z M 20 51 L 20 52 L 21 52 L 21 51 z M 40 38 L 40 39 L 41 39 L 41 38 z M 5 68 L 5 69 L 6 69 L 6 68 z M 62 23 L 62 24 L 63 24 L 63 23 z M 52 41 L 52 42 L 53 42 L 53 41 z M 38 12 L 38 13 L 39 13 L 39 12 z M 21 68 L 21 69 L 22 69 L 22 68 z M 41 17 L 41 18 L 42 18 L 42 17 z M 28 18 L 28 19 L 29 19 L 29 18 z M 4 59 L 4 60 L 5 60 L 5 59 z M 24 62 L 24 63 L 25 63 L 25 62 z M 7 6 L 7 7 L 8 7 L 8 6 z M 68 24 L 68 25 L 69 25 L 69 24 z M 5 44 L 5 45 L 6 45 L 6 44 z M 12 42 L 12 43 L 13 43 L 13 42 z M 11 26 L 11 27 L 12 27 L 12 26 z M 37 38 L 37 39 L 38 39 L 38 38 z M 40 45 L 40 46 L 41 46 L 41 45 z M 62 30 L 62 31 L 63 31 L 63 30 z M 45 38 L 45 39 L 46 39 L 46 38 z M 65 67 L 65 68 L 66 68 L 66 67 z M 16 54 L 16 55 L 17 55 L 17 54 z M 38 7 L 38 8 L 39 8 L 39 7 z M 21 61 L 21 62 L 22 62 L 22 61 z M 28 25 L 28 26 L 29 26 L 29 25 z M 66 10 L 66 11 L 67 11 L 67 10 z M 7 15 L 7 16 L 8 16 L 8 15 z M 54 22 L 54 23 L 55 23 L 55 22 z M 57 11 L 57 12 L 58 12 L 58 11 z M 5 37 L 5 38 L 6 38 L 6 37 z M 61 64 L 61 65 L 62 65 L 62 64 z M 8 46 L 8 47 L 9 47 L 9 46 z M 12 49 L 12 50 L 13 50 L 13 49 z M 11 19 L 11 20 L 12 20 L 12 19 z M 50 34 L 50 35 L 51 35 L 51 34 z M 6 68 L 6 69 L 7 69 L 7 68 z M 45 47 L 45 48 L 46 48 L 46 47 z M 26 11 L 26 12 L 27 12 L 27 11 z M 9 57 L 9 58 L 10 58 L 10 57 z M 41 67 L 41 68 L 42 68 L 42 67 z M 63 18 L 63 19 L 64 19 L 64 18 z M 28 32 L 28 33 L 29 33 L 29 32 z M 66 13 L 66 14 L 67 14 L 67 13 z M 14 23 L 14 24 L 15 24 L 15 23 z M 53 56 L 53 57 L 54 57 L 54 56 z M 4 9 L 4 10 L 5 10 L 5 9 z M 42 26 L 42 27 L 43 27 L 43 26 z M 32 28 L 32 29 L 33 29 L 33 28 z M 5 62 L 5 63 L 6 63 L 6 62 z M 44 15 L 44 16 L 45 16 L 45 15 z M 30 38 L 30 39 L 31 39 L 31 38 z M 33 59 L 33 60 L 34 60 L 34 59 z M 37 64 L 37 65 L 38 65 L 38 64 z M 20 24 L 20 25 L 21 25 L 21 24 z M 58 37 L 58 38 L 59 38 L 59 37 z M 62 48 L 62 49 L 63 49 L 63 48 z M 48 19 L 48 20 L 49 20 L 49 19 z M 16 36 L 16 37 L 17 37 L 17 36 z M 46 57 L 46 58 L 47 58 L 47 57 z M 66 52 L 66 53 L 67 53 L 67 52 z M 53 49 L 53 50 L 54 50 L 54 49 z M 17 67 L 17 68 L 18 68 L 18 67 z M 29 8 L 29 9 L 30 9 L 30 8 z M 67 23 L 67 24 L 68 24 L 68 23 z M 32 27 L 32 28 L 33 28 L 33 27 z M 54 8 L 54 9 L 55 9 L 55 8 z M 18 42 L 18 43 L 19 43 L 19 42 z M 57 13 L 57 14 L 58 14 L 58 13 z M 5 55 L 5 56 L 6 56 L 6 55 z M 25 52 L 25 53 L 26 53 L 26 52 z M 8 28 L 8 29 L 9 29 L 9 28 z M 50 44 L 50 45 L 51 45 L 51 44 z M 58 60 L 58 61 L 59 61 L 59 60 z M 62 59 L 62 60 L 63 60 L 63 59 z M 45 25 L 45 26 L 46 26 L 46 25 z M 26 21 L 26 22 L 27 22 L 27 21 z M 9 43 L 9 44 L 10 44 L 10 43 z M 48 10 L 48 11 L 49 11 L 49 10 z M 13 64 L 13 65 L 14 65 L 14 64 z M 21 48 L 21 49 L 22 49 L 22 48 z M 60 5 L 60 6 L 61 6 L 61 5 z M 63 32 L 63 33 L 64 33 L 64 32 z M 46 64 L 46 65 L 47 65 L 47 64 z M 14 9 L 14 10 L 15 10 L 15 9 z M 53 42 L 53 43 L 54 43 L 54 42 z M 34 68 L 34 69 L 35 69 L 35 68 z M 17 60 L 17 61 L 18 61 L 18 60 z M 39 27 L 39 28 L 40 28 L 40 27 z M 42 4 L 42 5 L 43 5 L 43 4 z M 29 17 L 29 18 L 30 18 L 30 17 z M 67 28 L 67 29 L 68 29 L 68 28 z M 57 22 L 57 23 L 58 23 L 58 22 z M 5 56 L 5 57 L 6 57 L 6 56 z M 50 55 L 50 56 L 51 56 L 51 55 z M 55 40 L 55 41 L 56 41 L 56 40 z M 20 6 L 20 7 L 21 7 L 21 6 z M 6 49 L 6 50 L 7 50 L 7 49 z M 62 66 L 62 67 L 63 67 L 63 66 z M 26 44 L 26 45 L 27 45 L 27 44 z M 34 60 L 34 61 L 35 61 L 35 60 z M 60 12 L 60 13 L 61 13 L 61 12 z M 41 46 L 41 47 L 42 47 L 42 46 z M 63 25 L 63 26 L 64 26 L 64 25 z M 46 43 L 46 44 L 47 44 L 47 43 z M 49 30 L 49 31 L 50 31 L 50 30 z M 14 16 L 14 17 L 15 17 L 15 16 z M 39 32 L 39 33 L 40 33 L 40 32 z M 22 64 L 22 65 L 23 65 L 23 64 z M 64 16 L 64 17 L 65 17 L 65 16 z M 54 58 L 54 59 L 55 59 L 55 58 z M 18 52 L 18 53 L 19 53 L 19 52 z M 5 17 L 5 18 L 6 18 L 6 17 z M 30 67 L 30 68 L 31 68 L 31 67 z M 50 62 L 50 63 L 51 63 L 51 62 z M 23 24 L 23 25 L 24 25 L 24 24 z M 6 40 L 6 41 L 7 41 L 7 40 z M 45 11 L 45 12 L 46 12 L 46 11 z M 26 39 L 26 40 L 27 40 L 27 39 z M 34 39 L 34 40 L 35 40 L 35 39 z M 38 66 L 38 67 L 39 67 L 39 66 z M 60 19 L 60 20 L 61 20 L 61 19 z M 63 46 L 63 47 L 64 47 L 64 46 z M 27 4 L 27 5 L 28 5 L 28 4 z M 10 60 L 10 61 L 11 61 L 11 60 z M 49 23 L 49 24 L 50 24 L 50 23 z M 14 59 L 14 60 L 15 60 L 15 59 z M 36 12 L 36 13 L 37 13 L 37 12 z M 17 46 L 17 47 L 18 47 L 18 46 z M 35 68 L 35 69 L 36 69 L 36 68 z M 42 54 L 42 55 L 43 55 L 43 54 z M 29 35 L 29 36 L 30 36 L 30 35 z M 15 32 L 15 33 L 16 33 L 16 32 z M 5 10 L 5 11 L 6 11 L 6 10 z M 43 21 L 43 22 L 44 22 L 44 21 z M 30 10 L 30 11 L 31 11 L 31 10 z M 33 31 L 33 32 L 34 32 L 34 31 z M 55 54 L 55 55 L 56 55 L 56 54 z M 58 17 L 58 18 L 59 18 L 59 17 z M 38 61 L 38 62 L 39 62 L 39 61 z M 63 39 L 63 40 L 64 40 L 64 39 z M 46 45 L 46 46 L 47 46 L 47 45 z M 27 29 L 27 30 L 28 30 L 28 29 z M 66 48 L 66 49 L 67 49 L 67 48 z M 36 19 L 36 20 L 37 20 L 37 19 z M 17 39 L 17 40 L 18 40 L 18 39 z M 22 50 L 22 51 L 23 51 L 23 50 z M 64 6 L 64 7 L 65 7 L 65 6 z M 47 62 L 47 63 L 48 63 L 48 62 z M 15 25 L 15 26 L 16 26 L 16 25 z M 54 44 L 54 45 L 55 45 L 55 44 z M 43 18 L 43 19 L 44 19 L 44 18 z M 55 63 L 55 64 L 56 64 L 56 63 z M 23 38 L 23 39 L 24 39 L 24 38 z M 6 58 L 6 59 L 7 59 L 7 58 z M 34 49 L 34 50 L 35 50 L 35 49 z M 4 68 L 4 69 L 5 69 L 5 68 z M 59 67 L 59 68 L 60 68 L 60 67 z M 63 60 L 63 61 L 64 61 L 64 60 z M 46 20 L 46 21 L 47 21 L 47 20 z M 10 46 L 10 47 L 11 47 L 11 46 z M 68 49 L 68 50 L 69 50 L 69 49 z M 49 9 L 49 10 L 50 10 L 50 9 z M 14 61 L 14 62 L 15 62 L 15 61 z M 36 10 L 36 11 L 37 11 L 37 10 z M 64 29 L 64 30 L 65 30 L 65 29 z M 67 64 L 67 65 L 68 65 L 68 64 z M 15 14 L 15 15 L 16 15 L 16 14 z M 40 22 L 40 23 L 41 23 L 41 22 z M 5 20 L 5 21 L 6 21 L 6 20 z M 43 11 L 43 12 L 44 12 L 44 11 z M 52 25 L 52 26 L 53 26 L 53 25 z M 58 35 L 58 36 L 59 36 L 59 35 z M 6 53 L 6 54 L 7 54 L 7 53 z M 26 56 L 26 57 L 27 57 L 27 56 z M 21 5 L 21 6 L 22 6 L 22 5 z M 24 14 L 24 15 L 25 15 L 25 14 z M 63 53 L 63 54 L 64 54 L 64 53 z M 68 40 L 68 41 L 69 41 L 69 40 z M 14 36 L 14 37 L 15 37 L 15 36 z M 39 60 L 39 61 L 40 61 L 40 60 z M 61 15 L 61 16 L 62 16 L 62 15 z M 64 20 L 64 21 L 65 21 L 65 20 z M 47 44 L 47 45 L 48 45 L 48 44 z M 67 41 L 67 42 L 68 42 L 68 41 z M 15 7 L 15 8 L 16 8 L 16 7 z M 18 16 L 18 17 L 19 17 L 19 16 z M 40 29 L 40 30 L 41 30 L 41 29 z M 43 64 L 43 65 L 44 65 L 44 64 z M 52 16 L 52 17 L 53 17 L 53 16 z M 55 13 L 55 14 L 56 14 L 56 13 z M 6 12 L 6 13 L 7 13 L 7 12 z M 28 41 L 28 42 L 29 42 L 29 41 z M 9 17 L 9 18 L 10 18 L 10 17 z M 31 52 L 31 53 L 32 53 L 32 52 z M 51 65 L 51 66 L 52 66 L 52 65 z M 34 35 L 34 36 L 35 36 L 35 35 z M 60 47 L 60 48 L 61 48 L 61 47 z M 59 17 L 59 18 L 60 18 L 60 17 z M 24 21 L 24 22 L 25 22 L 25 21 z M 63 58 L 63 59 L 64 59 L 64 58 z M 27 40 L 27 41 L 28 41 L 28 40 z M 10 40 L 10 41 L 11 41 L 11 40 z M 39 37 L 39 38 L 40 38 L 40 37 z M 32 68 L 32 69 L 33 69 L 33 68 z M 37 15 L 37 16 L 38 16 L 38 15 z M 18 27 L 18 28 L 19 28 L 19 27 z M 65 12 L 65 13 L 66 13 L 66 12 z M 52 7 L 52 8 L 53 8 L 53 7 z M 16 29 L 16 30 L 17 30 L 17 29 z M 55 18 L 55 19 L 56 19 L 56 18 z M 6 7 L 6 8 L 7 8 L 7 7 z M 28 48 L 28 49 L 29 49 L 29 48 z M 34 10 L 34 11 L 35 11 L 35 10 z M 56 59 L 56 60 L 57 60 L 57 59 z M 60 54 L 60 55 L 61 55 L 61 54 z M 59 14 L 59 15 L 60 15 L 60 14 z M 24 28 L 24 29 L 25 29 L 25 28 z M 46 17 L 46 18 L 47 18 L 47 17 z M 32 44 L 32 45 L 33 45 L 33 44 z M 35 49 L 35 50 L 36 50 L 36 49 z M 39 42 L 39 43 L 40 43 L 40 42 z M 22 22 L 22 23 L 23 23 L 23 22 z M 44 63 L 44 64 L 45 64 L 45 63 z M 25 11 L 25 12 L 26 12 L 26 11 z M 64 42 L 64 43 L 65 43 L 65 42 z M 47 42 L 47 43 L 48 43 L 48 42 z M 12 8 L 12 9 L 13 9 L 13 8 z M 67 47 L 67 48 L 68 48 L 68 47 z M 15 53 L 15 54 L 16 54 L 16 53 z M 18 34 L 18 35 L 19 35 L 19 34 z M 43 54 L 43 55 L 44 55 L 44 54 z M 48 67 L 48 68 L 49 68 L 49 67 z M 52 62 L 52 63 L 53 63 L 53 62 z M 16 20 L 16 21 L 17 21 L 17 20 z M 55 27 L 55 28 L 56 28 L 56 27 z M 53 33 L 53 34 L 54 34 L 54 33 z M 34 13 L 34 14 L 35 14 L 35 13 z M 4 48 L 4 49 L 5 49 L 5 48 z M 60 61 L 60 62 L 61 62 L 61 61 z M 59 7 L 59 8 L 60 8 L 60 7 z M 24 43 L 24 44 L 25 44 L 25 43 z M 7 45 L 7 46 L 8 46 L 8 45 z M 27 62 L 27 63 L 28 63 L 28 62 z M 10 26 L 10 27 L 11 27 L 11 26 z M 68 13 L 68 14 L 69 14 L 69 13 z M 36 38 L 36 39 L 37 39 L 37 38 z M 35 46 L 35 47 L 36 47 L 36 46 z M 17 68 L 17 69 L 18 69 L 18 68 z M 22 17 L 22 18 L 23 18 L 23 17 z M 61 34 L 61 35 L 62 35 L 62 34 z M 47 35 L 47 36 L 48 36 L 48 35 z M 11 49 L 11 50 L 12 50 L 12 49 z M 15 58 L 15 59 L 16 59 L 16 58 z M 33 68 L 33 69 L 34 69 L 34 68 z M 20 63 L 20 64 L 21 64 L 21 63 z M 40 58 L 40 59 L 41 59 L 41 58 z M 43 47 L 43 48 L 44 48 L 44 47 z M 65 30 L 65 31 L 66 31 L 66 30 z M 52 53 L 52 54 L 53 54 L 53 53 z M 19 6 L 19 7 L 20 7 L 20 6 z M 41 21 L 41 22 L 42 22 L 42 21 z M 6 25 L 6 26 L 7 26 L 7 25 z M 28 62 L 28 63 L 29 63 L 29 62 z M 53 26 L 53 27 L 54 27 L 54 26 z M 4 39 L 4 40 L 5 40 L 5 39 z M 68 4 L 68 5 L 69 5 L 69 4 z M 35 23 L 35 24 L 36 24 L 36 23 z M 22 8 L 22 9 L 23 9 L 23 8 z M 61 43 L 61 44 L 62 44 L 62 43 z M 47 24 L 47 25 L 48 25 L 48 24 z M 11 46 L 11 47 L 12 47 L 12 46 z M 37 34 L 37 35 L 38 35 L 38 34 z M 62 18 L 62 19 L 63 19 L 63 18 z M 43 36 L 43 37 L 44 37 L 44 36 z M 65 23 L 65 24 L 66 24 L 66 23 z M 52 44 L 52 45 L 53 45 L 53 44 z M 16 10 L 16 11 L 17 11 L 17 10 z M 19 15 L 19 16 L 20 16 L 20 15 z M 31 32 L 31 33 L 32 33 L 32 32 z M 53 19 L 53 20 L 54 20 L 54 19 z M 56 16 L 56 17 L 57 17 L 57 16 z M 4 62 L 4 63 L 5 63 L 5 62 z M 59 21 L 59 22 L 60 22 L 60 21 z M 7 27 L 7 28 L 8 28 L 8 27 z M 10 4 L 10 5 L 11 5 L 11 4 z M 36 52 L 36 53 L 37 53 L 37 52 z M 35 28 L 35 29 L 36 29 L 36 28 z M 18 68 L 18 69 L 19 69 L 19 68 z M 57 47 L 57 48 L 58 48 L 58 47 z M 8 66 L 8 67 L 9 67 L 9 66 z M 64 55 L 64 56 L 65 56 L 65 55 z M 12 61 L 12 62 L 13 62 L 13 61 z M 11 39 L 11 40 L 12 40 L 12 39 z M 50 14 L 50 15 L 51 15 L 51 14 z M 15 40 L 15 41 L 16 41 L 16 40 z M 37 27 L 37 28 L 38 28 L 38 27 z M 40 40 L 40 41 L 41 41 L 41 40 z M 45 59 L 45 60 L 46 60 L 46 59 z M 38 18 L 38 19 L 39 19 L 39 18 z M 19 20 L 19 21 L 20 21 L 20 20 z M 41 7 L 41 8 L 42 8 L 42 7 z M 66 25 L 66 26 L 67 26 L 67 25 z M 53 4 L 53 5 L 54 5 L 54 4 z M 17 30 L 17 31 L 18 31 L 18 30 z M 4 53 L 4 54 L 5 54 L 5 53 z M 24 64 L 24 65 L 25 65 L 25 64 z M 7 32 L 7 33 L 8 33 L 8 32 z M 32 16 L 32 17 L 33 17 L 33 16 z M 57 56 L 57 57 L 58 57 L 58 56 z M 61 53 L 61 54 L 62 54 L 62 53 z M 44 27 L 44 28 L 45 28 L 45 27 z M 25 31 L 25 32 L 26 32 L 26 31 z M 12 36 L 12 37 L 13 37 L 13 36 z M 37 44 L 37 45 L 38 45 L 38 44 z M 62 20 L 62 21 L 63 21 L 63 20 z M 26 14 L 26 15 L 27 15 L 27 14 z M 48 39 L 48 40 L 49 40 L 49 39 z M 13 11 L 13 12 L 14 12 L 14 11 z M 52 42 L 52 43 L 53 43 L 53 42 z M 16 56 L 16 57 L 17 57 L 17 56 z M 41 16 L 41 17 L 42 17 L 42 16 z M 66 32 L 66 33 L 67 33 L 67 32 z M 4 12 L 4 13 L 5 13 L 5 12 z M 24 63 L 24 64 L 25 64 L 25 63 z M 29 52 L 29 53 L 30 53 L 30 52 z M 32 15 L 32 16 L 33 16 L 33 15 z M 35 18 L 35 19 L 36 19 L 36 18 z M 57 65 L 57 66 L 58 66 L 58 65 z M 5 51 L 5 52 L 6 52 L 6 51 z M 8 48 L 8 49 L 9 49 L 9 48 z M 12 43 L 12 44 L 13 44 L 13 43 z M 11 21 L 11 22 L 12 22 L 12 21 z M 20 43 L 20 44 L 21 44 L 21 43 z M 40 46 L 40 47 L 41 47 L 41 46 z M 13 12 L 13 13 L 14 13 L 14 12 z M 16 55 L 16 56 L 17 56 L 17 55 z M 38 4 L 38 5 L 39 5 L 39 4 z M 21 60 L 21 61 L 22 61 L 22 60 z M 41 57 L 41 58 L 42 58 L 42 57 z M 63 12 L 63 13 L 64 13 L 64 12 z M 17 16 L 17 17 L 18 17 L 18 16 z M 56 29 L 56 30 L 57 30 L 57 29 z M 7 14 L 7 15 L 8 15 L 8 14 z M 5 36 L 5 37 L 6 37 L 6 36 z M 11 18 L 11 19 L 12 19 L 12 18 z M 58 51 L 58 52 L 59 52 L 59 51 z M 62 38 L 62 39 L 63 39 L 63 38 z M 48 21 L 48 22 L 49 22 L 49 21 z M 51 8 L 51 9 L 52 9 L 52 8 z M 16 46 L 16 47 L 17 47 L 17 46 z M 38 31 L 38 32 L 39 32 L 39 31 z M 21 53 L 21 54 L 22 54 L 22 53 z M 28 33 L 28 34 L 29 34 L 29 33 z M 66 18 L 66 19 L 67 19 L 67 18 z M 49 50 L 49 51 L 50 51 L 50 50 z M 14 20 L 14 21 L 15 21 L 15 20 z M 53 47 L 53 48 L 54 48 L 54 47 z M 4 10 L 4 11 L 5 11 L 5 10 z M 42 27 L 42 28 L 43 28 L 43 27 z M 29 6 L 29 7 L 30 7 L 30 6 z M 67 25 L 67 26 L 68 26 L 68 25 z M 57 19 L 57 20 L 58 20 L 58 19 z M 30 39 L 30 40 L 31 40 L 31 39 z M 50 42 L 50 43 L 51 43 L 51 42 z M 33 58 L 33 59 L 34 59 L 34 58 z M 15 68 L 15 69 L 16 69 L 16 68 z M 62 49 L 62 50 L 63 50 L 63 49 z M 48 12 L 48 13 L 49 13 L 49 12 z M 13 62 L 13 63 L 14 63 L 14 62 z M 51 17 L 51 18 L 52 18 L 52 17 z M 38 22 L 38 23 L 39 23 L 39 22 z M 63 10 L 63 11 L 64 11 L 64 10 z M 49 43 L 49 44 L 50 44 L 50 43 z M 14 31 L 14 32 L 15 32 L 15 31 z M 53 48 L 53 49 L 54 49 L 54 48 z M 17 66 L 17 67 L 18 67 L 18 66 z M 42 18 L 42 19 L 43 19 L 43 18 z M 29 15 L 29 16 L 30 16 L 30 15 z M 67 22 L 67 23 L 68 23 L 68 22 z M 32 20 L 32 21 L 33 21 L 33 20 z M 57 12 L 57 13 L 58 13 L 58 12 z M 5 54 L 5 55 L 6 55 L 6 54 z M 8 29 L 8 30 L 9 30 L 9 29 z M 33 19 L 33 20 L 34 20 L 34 19 z M 20 16 L 20 17 L 21 17 L 21 16 z M 58 61 L 58 62 L 59 62 L 59 61 z M 45 24 L 45 25 L 46 25 L 46 24 z M 9 42 L 9 43 L 10 43 L 10 42 z M 48 11 L 48 12 L 49 12 L 49 11 z M 51 14 L 51 15 L 52 15 L 52 14 z M 60 6 L 60 7 L 61 7 L 61 6 z M 41 36 L 41 37 L 42 37 L 42 36 z M 46 65 L 46 66 L 47 66 L 47 65 z M 27 17 L 27 18 L 28 18 L 28 17 z M 66 60 L 66 61 L 67 61 L 67 60 z M 49 36 L 49 37 L 50 37 L 50 36 z M 17 59 L 17 60 L 18 60 L 18 59 z M 29 16 L 29 17 L 30 17 L 30 16 z M 54 64 L 54 65 L 55 65 L 55 64 z M 57 21 L 57 22 L 58 22 L 58 21 z M 8 4 L 8 5 L 9 5 L 9 4 z M 30 57 L 30 58 L 31 58 L 31 57 z M 33 12 L 33 13 L 34 13 L 34 12 z M 55 43 L 55 44 L 56 44 L 56 43 z M 20 7 L 20 8 L 21 8 L 21 7 z M 45 33 L 45 34 L 46 34 L 46 33 z M 9 51 L 9 52 L 10 52 L 10 51 z M 13 40 L 13 41 L 14 41 L 14 40 z M 34 61 L 34 62 L 35 62 L 35 61 z M 21 40 L 21 41 L 22 41 L 22 40 z M 41 45 L 41 46 L 42 46 L 42 45 z M 63 24 L 63 25 L 64 25 L 64 24 z M 46 40 L 46 41 L 47 41 L 47 40 z M 66 39 L 66 40 L 67 40 L 67 39 z M 14 17 L 14 18 L 15 18 L 15 17 z M 39 35 L 39 36 L 40 36 L 40 35 z M 59 68 L 59 69 L 60 69 L 60 68 z M 64 17 L 64 18 L 65 18 L 65 17 z M 29 25 L 29 26 L 30 26 L 30 25 z M 67 4 L 67 5 L 68 5 L 68 4 z M 54 59 L 54 60 L 55 60 L 55 59 z M 18 53 L 18 54 L 19 54 L 19 53 z M 43 31 L 43 32 L 44 32 L 44 31 z M 30 64 L 30 65 L 31 65 L 31 64 z M 58 15 L 58 16 L 59 16 L 59 15 z M 6 41 L 6 42 L 7 42 L 7 41 z M 13 49 L 13 50 L 14 50 L 14 49 z M 34 36 L 34 37 L 35 37 L 35 36 z M 21 33 L 21 34 L 22 34 L 22 33 z M 60 20 L 60 21 L 61 21 L 61 20 z M 46 51 L 46 52 L 47 52 L 47 51 z M 27 7 L 27 8 L 28 8 L 28 7 z M 49 22 L 49 23 L 50 23 L 50 22 z M 39 8 L 39 9 L 40 9 L 40 8 z M 64 8 L 64 9 L 65 9 L 65 8 z M 54 50 L 54 51 L 55 51 L 55 50 z M 30 11 L 30 12 L 31 12 L 31 11 z M 52 28 L 52 29 L 53 29 L 53 28 z M 33 30 L 33 31 L 34 31 L 34 30 z M 58 6 L 58 7 L 59 7 L 59 6 z M 23 32 L 23 33 L 24 33 L 24 32 z M 6 64 L 6 65 L 7 65 L 7 64 z M 45 19 L 45 20 L 46 20 L 46 19 z M 26 63 L 26 64 L 27 64 L 27 63 z M 51 37 L 51 38 L 52 38 L 52 37 z M 34 47 L 34 48 L 35 48 L 35 47 z M 21 26 L 21 27 L 22 27 L 22 26 z M 60 27 L 60 28 L 61 28 L 61 27 z M 59 37 L 59 38 L 60 38 L 60 37 z M 24 9 L 24 10 L 25 10 L 25 9 z M 63 38 L 63 39 L 64 39 L 64 38 z M 28 68 L 28 69 L 29 69 L 29 68 z M 10 52 L 10 53 L 11 53 L 11 52 z M 49 15 L 49 16 L 50 16 L 50 15 z M 36 4 L 36 5 L 37 5 L 37 4 z M 17 38 L 17 39 L 18 39 L 18 38 z M 39 17 L 39 18 L 40 18 L 40 17 z M 22 51 L 22 52 L 23 52 L 23 51 z M 42 46 L 42 47 L 43 47 L 43 46 z M 64 7 L 64 8 L 65 8 L 65 7 z M 47 65 L 47 66 L 48 66 L 48 65 z M 67 58 L 67 59 L 68 59 L 68 58 z M 15 24 L 15 25 L 16 25 L 16 24 z M 54 45 L 54 46 L 55 46 L 55 45 z M 18 7 L 18 8 L 19 8 L 19 7 z M 33 23 L 33 24 L 34 24 L 34 23 z M 55 62 L 55 63 L 56 63 L 56 62 z M 58 9 L 58 10 L 59 10 L 59 9 z M 26 54 L 26 55 L 27 55 L 27 54 z M 34 22 L 34 23 L 35 23 L 35 22 z M 21 19 L 21 20 L 22 20 L 22 19 z M 60 34 L 60 35 L 61 35 L 61 34 z M 59 66 L 59 67 L 60 67 L 60 66 z M 24 16 L 24 17 L 25 17 L 25 16 z M 46 21 L 46 22 L 47 22 L 47 21 z M 27 21 L 27 22 L 28 22 L 28 21 z M 14 42 L 14 43 L 15 43 L 15 42 z M 35 53 L 35 54 L 36 54 L 36 53 z M 22 42 L 22 43 L 23 43 L 23 42 z M 64 30 L 64 31 L 65 31 L 65 30 z M 12 20 L 12 21 L 13 21 L 13 20 z M 67 67 L 67 68 L 68 68 L 68 67 z M 15 17 L 15 18 L 16 18 L 16 17 z M 54 36 L 54 37 L 55 37 L 55 36 z M 18 14 L 18 15 L 19 15 L 19 14 z M 40 23 L 40 24 L 41 24 L 41 23 z M 30 13 L 30 14 L 31 14 L 31 13 z M 52 26 L 52 27 L 53 27 L 53 26 z M 58 32 L 58 33 L 59 33 L 59 32 z M 6 18 L 6 19 L 7 19 L 7 18 z M 31 62 L 31 63 L 32 63 L 32 62 z M 13 68 L 13 69 L 14 69 L 14 68 z M 21 4 L 21 5 L 22 5 L 22 4 z M 60 41 L 60 42 L 61 42 L 61 41 z M 59 59 L 59 60 L 60 60 L 60 59 z M 24 15 L 24 16 L 25 16 L 25 15 z M 7 57 L 7 58 L 8 58 L 8 57 z M 10 38 L 10 39 L 11 39 L 11 38 z M 14 37 L 14 38 L 15 38 L 15 37 z M 36 34 L 36 35 L 37 35 L 37 34 z M 35 66 L 35 67 L 36 67 L 36 66 z M 22 37 L 22 38 L 23 38 L 23 37 z M 61 14 L 61 15 L 62 15 L 62 14 z M 47 47 L 47 48 L 48 48 L 48 47 z M 67 40 L 67 41 L 68 41 L 68 40 z M 15 6 L 15 7 L 16 7 L 16 6 z M 18 17 L 18 18 L 19 18 L 19 17 z M 40 30 L 40 31 L 41 31 L 41 30 z M 65 18 L 65 19 L 66 19 L 66 18 z M 58 27 L 58 28 L 59 28 L 59 27 z M 28 42 L 28 43 L 29 43 L 29 42 z M 9 16 L 9 17 L 10 17 L 10 16 z M 31 55 L 31 56 L 32 56 L 32 55 z M 51 64 L 51 65 L 52 65 L 52 64 z M 56 45 L 56 46 L 57 46 L 57 45 z M 24 22 L 24 23 L 25 23 L 25 22 z M 7 62 L 7 63 L 8 63 L 8 62 z M 46 7 L 46 8 L 47 8 L 47 7 z M 14 44 L 14 45 L 15 45 L 15 44 z M 22 28 L 22 29 L 23 29 L 23 28 z M 44 57 L 44 58 L 45 58 L 45 57 z M 12 34 L 12 35 L 13 35 L 13 34 z M 67 49 L 67 50 L 68 50 L 68 49 z M 15 63 L 15 64 L 16 64 L 16 63 z M 37 14 L 37 15 L 38 15 L 38 14 z M 18 24 L 18 25 L 19 25 L 19 24 z M 43 56 L 43 57 L 44 57 L 44 56 z M 16 30 L 16 31 L 17 31 L 17 30 z M 55 21 L 55 22 L 56 22 L 56 21 z M 19 67 L 19 68 L 20 68 L 20 67 z M 6 4 L 6 5 L 7 5 L 7 4 z M 31 12 L 31 13 L 32 13 L 32 12 z M 53 31 L 53 32 L 54 32 L 54 31 z M 34 11 L 34 12 L 35 12 L 35 11 z M 60 55 L 60 56 L 61 56 L 61 55 z M 7 39 L 7 40 L 8 40 L 8 39 z M 27 64 L 27 65 L 28 65 L 28 64 z M 10 32 L 10 33 L 11 33 L 11 32 z M 44 64 L 44 65 L 45 65 L 45 64 z M 64 43 L 64 44 L 65 44 L 65 43 z M 47 29 L 47 30 L 48 30 L 48 29 z M 12 9 L 12 10 L 13 10 L 13 9 z M 18 35 L 18 36 L 19 36 L 19 35 z M 57 68 L 57 69 L 58 69 L 58 68 z M 65 4 L 65 5 L 66 5 L 66 4 z M 16 21 L 16 22 L 17 22 L 17 21 z M 19 8 L 19 9 L 20 9 L 20 8 z M 41 27 L 41 28 L 42 28 L 42 27 z M 28 56 L 28 57 L 29 57 L 29 56 z M 31 5 L 31 6 L 32 6 L 32 5 z M 53 32 L 53 33 L 54 33 L 54 32 z M 56 67 L 56 68 L 57 68 L 57 67 z M 60 62 L 60 63 L 61 63 L 61 62 z M 27 57 L 27 58 L 28 58 L 28 57 z M 32 36 L 32 37 L 33 37 L 33 36 z M 35 25 L 35 26 L 36 26 L 36 25 z M 39 50 L 39 51 L 40 51 L 40 50 z M 22 14 L 22 15 L 23 15 L 23 14 z M 44 39 L 44 40 L 45 40 L 45 39 z M 25 19 L 25 20 L 26 20 L 26 19 z M 11 48 L 11 49 L 12 49 L 12 48 z M 37 8 L 37 9 L 38 9 L 38 8 z M 20 64 L 20 65 L 21 65 L 21 64 z M 62 8 L 62 9 L 63 9 L 63 8 z M 43 46 L 43 47 L 44 47 L 44 46 z M 48 59 L 48 60 L 49 60 L 49 59 z M 13 23 L 13 24 L 14 24 L 14 23 z M 52 54 L 52 55 L 53 55 L 53 54 z M 55 35 L 55 36 L 56 36 L 56 35 z M 19 17 L 19 18 L 20 18 L 20 17 z M 41 20 L 41 21 L 42 21 L 42 20 z M 6 22 L 6 23 L 7 23 L 7 22 z M 28 63 L 28 64 L 29 64 L 29 63 z M 56 10 L 56 11 L 57 11 L 57 10 z M 4 40 L 4 41 L 5 41 L 5 40 z M 7 21 L 7 22 L 8 22 L 8 21 z M 10 18 L 10 19 L 11 19 L 11 18 z M 68 5 L 68 6 L 69 6 L 69 5 z M 36 62 L 36 63 L 37 63 L 37 62 z M 35 22 L 35 23 L 36 23 L 36 22 z M 57 37 L 57 38 L 58 38 L 58 37 z M 42 68 L 42 69 L 43 69 L 43 68 z M 25 12 L 25 13 L 26 13 L 26 12 z M 64 57 L 64 58 L 65 58 L 65 57 z M 47 27 L 47 28 L 48 28 L 48 27 z M 11 41 L 11 42 L 12 42 L 12 41 z M 15 50 L 15 51 L 16 51 L 16 50 z M 58 68 L 58 69 L 59 69 L 59 68 z M 62 19 L 62 20 L 63 20 L 63 19 z M 43 39 L 43 40 L 44 40 L 44 39 z M 65 22 L 65 23 L 66 23 L 66 22 z M 52 45 L 52 46 L 53 46 L 53 45 z M 19 14 L 19 15 L 20 15 L 20 14 z M 28 6 L 28 7 L 29 7 L 29 6 z M 4 63 L 4 64 L 5 64 L 5 63 z M 10 5 L 10 6 L 11 6 L 11 5 z M 68 28 L 68 29 L 69 29 L 69 28 z M 32 58 L 32 59 L 33 59 L 33 58 z M 61 51 L 61 52 L 62 52 L 62 51 z M 47 16 L 47 17 L 48 17 L 48 16 z M 11 38 L 11 39 L 12 39 L 12 38 z M 15 43 L 15 44 L 16 44 L 16 43 z M 20 46 L 20 47 L 21 47 L 21 46 z M 40 41 L 40 42 L 41 42 L 41 41 z M 62 26 L 62 27 L 63 27 L 63 26 z M 65 47 L 65 48 L 66 48 L 66 47 z M 48 41 L 48 42 L 49 42 L 49 41 z M 52 36 L 52 37 L 53 37 L 53 36 z M 19 23 L 19 24 L 20 24 L 20 23 z M 41 6 L 41 7 L 42 7 L 42 6 z M 31 24 L 31 25 L 32 25 L 32 24 z M 17 29 L 17 30 L 18 30 L 18 29 z M 7 35 L 7 36 L 8 36 L 8 35 z M 29 50 L 29 51 L 30 51 L 30 50 z M 27 68 L 27 69 L 28 69 L 28 68 z M 54 34 L 54 35 L 55 35 L 55 34 z M 35 4 L 35 5 L 36 5 L 36 4 z M 57 55 L 57 56 L 58 56 L 58 55 z M 43 68 L 43 69 L 44 69 L 44 68 z M 12 37 L 12 38 L 13 38 L 13 37 z M 11 31 L 11 32 L 12 32 L 12 31 z M 33 46 L 33 47 L 34 47 L 34 46 z M 20 37 L 20 38 L 21 38 L 21 37 z M 40 48 L 40 49 L 41 49 L 41 48 z M 38 10 L 38 11 L 39 11 L 39 10 z M 19 28 L 19 29 L 20 29 L 20 28 z M 41 15 L 41 16 L 42 16 L 42 15 z M 66 33 L 66 34 L 67 34 L 67 33 z M 17 22 L 17 23 L 18 23 L 18 22 z M 56 23 L 56 24 L 57 24 L 57 23 z M 42 30 L 42 31 L 43 31 L 43 30 z M 7 8 L 7 9 L 8 9 L 8 8 z M 35 13 L 35 14 L 36 14 L 36 13 z M 25 39 L 25 40 L 26 40 L 26 39 z M 8 49 L 8 50 L 9 50 L 9 49 z M 20 28 L 20 29 L 21 29 L 21 28 z M 65 65 L 65 66 L 66 66 L 66 65 z M 48 31 L 48 32 L 49 32 L 49 31 z M 13 19 L 13 20 L 14 20 L 14 19 z M 21 67 L 21 68 L 22 68 L 22 67 z M 28 27 L 28 28 L 29 28 L 29 27 z M 66 8 L 66 9 L 67 9 L 67 8 z M 49 56 L 49 57 L 50 57 L 50 56 z M 53 53 L 53 54 L 54 54 L 54 53 z M 4 4 L 4 5 L 5 5 L 5 4 z M 7 17 L 7 18 L 8 18 L 8 17 z M 12 68 L 12 69 L 13 69 L 13 68 z M 32 7 L 32 8 L 33 8 L 33 7 z M 57 9 L 57 10 L 58 10 L 58 9 z M 44 10 L 44 11 L 45 11 L 45 10 z M 8 24 L 8 25 L 9 25 L 9 24 z M 12 51 L 12 52 L 13 52 L 13 51 z M 20 35 L 20 36 L 21 36 L 21 35 z M 58 48 L 58 49 L 59 49 L 59 48 z M 62 39 L 62 40 L 63 40 L 63 39 z M 26 9 L 26 10 L 27 10 L 27 9 z M 9 55 L 9 56 L 10 56 L 10 55 z M 65 58 L 65 59 L 66 59 L 66 58 z M 51 11 L 51 12 L 52 12 L 52 11 z M 21 52 L 21 53 L 22 53 L 22 52 z M 41 65 L 41 66 L 42 66 L 42 65 z M 63 4 L 63 5 L 64 5 L 64 4 z M 66 19 L 66 20 L 67 20 L 67 19 z M 53 46 L 53 47 L 54 47 L 54 46 z M 17 8 L 17 9 L 18 9 L 18 8 z M 42 24 L 42 25 L 43 25 L 43 24 z M 67 24 L 67 25 L 68 25 L 68 24 z M 54 15 L 54 16 L 55 16 L 55 15 z M 5 60 L 5 61 L 6 61 L 6 60 z M 44 17 L 44 18 L 45 18 L 45 17 z M 20 26 L 20 27 L 21 27 L 21 26 z M 26 32 L 26 33 L 27 33 L 27 32 z M 48 13 L 48 14 L 49 14 L 49 13 z M 51 16 L 51 17 L 52 17 L 52 16 z M 63 29 L 63 30 L 64 30 L 64 29 z M 46 55 L 46 56 L 47 56 L 47 55 z M 49 42 L 49 43 L 50 43 L 50 42 z M 14 28 L 14 29 L 15 29 L 15 28 z M 39 20 L 39 21 L 40 21 L 40 20 z M 42 19 L 42 20 L 43 20 L 43 19 z M 29 14 L 29 15 L 30 15 L 30 14 z M 54 6 L 54 7 L 55 7 L 55 6 z M 8 30 L 8 31 L 9 31 L 9 30 z M 50 50 L 50 51 L 51 51 L 51 50 z M 20 17 L 20 18 L 21 18 L 21 17 z M 23 12 L 23 13 L 24 13 L 24 12 z M 62 57 L 62 58 L 63 58 L 63 57 z M 48 4 L 48 5 L 49 5 L 49 4 z M 34 59 L 34 60 L 35 60 L 35 59 z M 41 51 L 41 52 L 42 52 L 42 51 z M 63 34 L 63 35 L 64 35 L 64 34 z M 27 16 L 27 17 L 28 17 L 28 16 z M 53 40 L 53 41 L 54 41 L 54 40 z M 17 58 L 17 59 L 18 59 L 18 58 z M 39 29 L 39 30 L 40 30 L 40 29 z M 42 10 L 42 11 L 43 11 L 43 10 z M 29 23 L 29 24 L 30 24 L 30 23 z M 18 51 L 18 52 L 19 52 L 19 51 z M 57 20 L 57 21 L 58 21 L 58 20 z M 33 11 L 33 12 L 34 12 L 34 11 z M 58 53 L 58 54 L 59 54 L 59 53 z M 23 21 L 23 22 L 24 22 L 24 21 z M 62 64 L 62 65 L 63 65 L 63 64 z M 45 32 L 45 33 L 46 33 L 46 32 z M 13 47 L 13 48 L 14 48 L 14 47 z M 51 22 L 51 23 L 52 23 L 52 22 z M 34 66 L 34 67 L 35 67 L 35 66 z M 21 31 L 21 32 L 22 32 L 22 31 z M 60 14 L 60 15 L 61 15 L 61 14 z M 63 27 L 63 28 L 64 28 L 64 27 z M 49 28 L 49 29 L 50 29 L 50 28 z M 17 51 L 17 52 L 18 52 L 18 51 z M 39 34 L 39 35 L 40 35 L 40 34 z M 22 62 L 22 63 L 23 63 L 23 62 z M 64 18 L 64 19 L 65 19 L 65 18 z M 29 24 L 29 25 L 30 25 L 30 24 z M 15 29 L 15 30 L 16 30 L 16 29 z M 18 58 L 18 59 L 19 59 L 19 58 z M 57 29 L 57 30 L 58 30 L 58 29 z M 25 68 L 25 69 L 26 69 L 26 68 z M 8 12 L 8 13 L 9 13 L 9 12 z M 30 65 L 30 66 L 31 66 L 31 65 z M 50 60 L 50 61 L 51 61 L 51 60 z M 33 4 L 33 5 L 34 5 L 34 4 z M 55 51 L 55 52 L 56 52 L 56 51 z M 58 12 L 58 13 L 59 13 L 59 12 z M 6 38 L 6 39 L 7 39 L 7 38 z M 13 48 L 13 49 L 14 49 L 14 48 z M 34 37 L 34 38 L 35 38 L 35 37 z M 38 64 L 38 65 L 39 65 L 39 64 z M 21 32 L 21 33 L 22 33 L 22 32 z M 59 47 L 59 48 L 60 48 L 60 47 z M 46 48 L 46 49 L 47 49 L 47 48 z M 27 6 L 27 7 L 28 7 L 28 6 z M 10 66 L 10 67 L 11 67 L 11 66 z M 14 57 L 14 58 L 15 58 L 15 57 z M 22 57 L 22 58 L 23 58 L 23 57 z M 15 34 L 15 35 L 16 35 L 16 34 z M 18 61 L 18 62 L 19 62 L 19 61 z M 43 23 L 43 24 L 44 24 L 44 23 z M 33 29 L 33 30 L 34 30 L 34 29 z M 58 7 L 58 8 L 59 8 L 59 7 z M 6 65 L 6 66 L 7 66 L 7 65 z M 45 18 L 45 19 L 46 19 L 46 18 z M 34 44 L 34 45 L 35 45 L 35 44 z M 38 59 L 38 60 L 39 60 L 39 59 z M 60 28 L 60 29 L 61 29 L 61 28 z M 24 10 L 24 11 L 25 11 L 25 10 z M 63 41 L 63 42 L 64 42 L 64 41 z M 46 27 L 46 28 L 47 28 L 47 27 z M 27 31 L 27 32 L 28 32 L 28 31 z M 14 64 L 14 65 L 15 65 L 15 64 z M 22 48 L 22 49 L 23 49 L 23 48 z M 64 32 L 64 33 L 65 33 L 65 32 z M 15 27 L 15 28 L 16 28 L 16 27 z M 54 42 L 54 43 L 55 43 L 55 42 z M 18 4 L 18 5 L 19 5 L 19 4 z M 5 33 L 5 34 L 6 34 L 6 33 z M 30 19 L 30 20 L 31 20 L 31 19 z M 52 20 L 52 21 L 53 21 L 53 20 z M 19 39 L 19 40 L 20 40 L 20 39 z M 6 56 L 6 57 L 7 57 L 7 56 z M 31 40 L 31 41 L 32 41 L 32 40 z M 34 23 L 34 24 L 35 24 L 35 23 z M 21 18 L 21 19 L 22 19 L 22 18 z M 60 35 L 60 36 L 61 36 L 61 35 z M 10 44 L 10 45 L 11 45 L 11 44 z M 68 51 L 68 52 L 69 52 L 69 51 z M 49 7 L 49 8 L 50 8 L 50 7 z M 22 43 L 22 44 L 23 44 L 23 43 z M 67 66 L 67 67 L 68 67 L 68 66 z M 40 32 L 40 33 L 41 33 L 41 32 z M 5 26 L 5 27 L 6 27 L 6 26 z M 55 6 L 55 7 L 56 7 L 56 6 z M 19 44 L 19 45 L 20 45 L 20 44 z M 58 33 L 58 34 L 59 34 L 59 33 z M 23 49 L 23 50 L 24 50 L 24 49 z M 6 19 L 6 20 L 7 20 L 7 19 z M 28 36 L 28 37 L 29 37 L 29 36 z M 31 65 L 31 66 L 32 66 L 32 65 z M 51 58 L 51 59 L 52 59 L 52 58 z M 34 30 L 34 31 L 35 31 L 35 30 z M 56 39 L 56 40 L 57 40 L 57 39 z M 21 11 L 21 12 L 22 12 L 22 11 z M 60 42 L 60 43 L 61 43 L 61 42 z M 59 58 L 59 59 L 60 59 L 60 58 z M 24 24 L 24 25 L 25 25 L 25 24 z M 7 56 L 7 57 L 8 57 L 8 56 z M 46 29 L 46 30 L 47 30 L 47 29 z M 14 50 L 14 51 L 15 51 L 15 50 z M 61 13 L 61 14 L 62 14 L 62 13 z M 64 22 L 64 23 L 65 23 L 65 22 z M 67 43 L 67 44 L 68 44 L 68 43 z M 15 9 L 15 10 L 16 10 L 16 9 z M 43 66 L 43 67 L 44 67 L 44 66 z M 30 21 L 30 22 L 31 22 L 31 21 z M 52 18 L 52 19 L 53 19 L 53 18 z M 16 32 L 16 33 L 17 33 L 17 32 z M 55 15 L 55 16 L 56 16 L 56 15 z M 6 10 L 6 11 L 7 11 L 7 10 z M 56 46 L 56 47 L 57 47 L 57 46 z M 38 68 L 38 69 L 39 69 L 39 68 z M 60 49 L 60 50 L 61 50 L 61 49 z M 7 65 L 7 66 L 8 66 L 8 65 z M 46 4 L 46 5 L 47 5 L 47 4 z M 27 42 L 27 43 L 28 43 L 28 42 z M 10 30 L 10 31 L 11 31 L 11 30 z M 14 45 L 14 46 L 15 46 L 15 45 z M 36 26 L 36 27 L 37 27 L 37 26 z M 54 68 L 54 69 L 55 69 L 55 68 z M 44 58 L 44 59 L 45 59 L 45 58 z M 64 45 L 64 46 L 65 46 L 65 45 z M 12 35 L 12 36 L 13 36 L 13 35 z M 67 48 L 67 49 L 68 49 L 68 48 z M 15 62 L 15 63 L 16 63 L 16 62 z M 37 13 L 37 14 L 38 14 L 38 13 z M 43 59 L 43 60 L 44 60 L 44 59 z M 65 10 L 65 11 L 66 11 L 66 10 z M 52 9 L 52 10 L 53 10 L 53 9 z M 16 31 L 16 32 L 17 32 L 17 31 z M 23 63 L 23 64 L 24 64 L 24 63 z M 28 50 L 28 51 L 29 51 L 29 50 z M 34 8 L 34 9 L 35 9 L 35 8 z M 56 53 L 56 54 L 57 54 L 57 53 z M 7 38 L 7 39 L 8 39 L 8 38 z M 46 15 L 46 16 L 47 16 L 47 15 z M 27 67 L 27 68 L 28 68 L 28 67 z M 32 46 L 32 47 L 33 47 L 33 46 z M 36 49 L 36 50 L 37 50 L 37 49 z M 35 51 L 35 52 L 36 52 L 36 51 z M 39 44 L 39 45 L 40 45 L 40 44 z M 22 20 L 22 21 L 23 21 L 23 20 z M 61 31 L 61 32 L 62 32 L 62 31 z M 44 65 L 44 66 L 45 66 L 45 65 z M 64 36 L 64 37 L 65 37 L 65 36 z M 47 28 L 47 29 L 48 29 L 48 28 z M 12 10 L 12 11 L 13 11 L 13 10 z M 11 58 L 11 59 L 12 59 L 12 58 z M 37 6 L 37 7 L 38 7 L 38 6 z M 65 35 L 65 36 L 66 36 L 66 35 z M 52 64 L 52 65 L 53 65 L 53 64 z M 19 11 L 19 12 L 20 12 L 20 11 z M 23 68 L 23 69 L 24 69 L 24 68 z M 6 28 L 6 29 L 7 29 L 7 28 z M 34 19 L 34 20 L 35 20 L 35 19 z M 39 68 L 39 69 L 40 69 L 40 68 z M 60 63 L 60 64 L 61 64 L 61 63 z M 24 37 L 24 38 L 25 38 L 25 37 z M 10 24 L 10 25 L 11 25 L 11 24 z M 36 40 L 36 41 L 37 41 L 37 40 z M 35 24 L 35 25 L 36 25 L 36 24 z M 57 43 L 57 44 L 58 44 L 58 43 z M 12 17 L 12 18 L 13 18 L 13 17 z M 40 52 L 40 53 L 41 53 L 41 52 z M 62 9 L 62 10 L 63 10 L 63 9 z M 43 41 L 43 42 L 44 42 L 44 41 z M 16 13 L 16 14 L 17 14 L 17 13 z M 55 34 L 55 35 L 56 35 L 56 34 z M 53 24 L 53 25 L 54 25 L 54 24 z M 56 11 L 56 12 L 57 12 L 57 11 z M 24 44 L 24 45 L 25 45 L 25 44 z M 68 6 L 68 7 L 69 7 L 69 6 z M 32 60 L 32 61 L 33 61 L 33 60 z M 35 33 L 35 34 L 36 34 L 36 33 z M 44 47 L 44 48 L 45 48 L 45 47 z M 64 58 L 64 59 L 65 59 L 65 58 z M 47 26 L 47 27 L 48 27 L 48 26 z M 12 56 L 12 57 L 13 57 L 13 56 z M 11 40 L 11 41 L 12 41 L 12 40 z M 50 5 L 50 6 L 51 6 L 51 5 z M 15 37 L 15 38 L 16 38 L 16 37 z M 40 67 L 40 68 L 41 68 L 41 67 z M 62 16 L 62 17 L 63 17 L 63 16 z M 43 38 L 43 39 L 44 39 L 44 38 z M 48 51 L 48 52 L 49 52 L 49 51 z M 13 31 L 13 32 L 14 32 L 14 31 z M 52 46 L 52 47 L 53 47 L 53 46 z M 16 4 L 16 5 L 17 5 L 17 4 z M 28 7 L 28 8 L 29 8 L 29 7 z M 66 20 L 66 21 L 67 21 L 67 20 z M 31 34 L 31 35 L 32 35 L 32 34 z M 53 17 L 53 18 L 54 18 L 54 17 z M 4 64 L 4 65 L 5 65 L 5 64 z M 59 23 L 59 24 L 60 24 L 60 23 z M 7 29 L 7 30 L 8 30 L 8 29 z M 29 40 L 29 41 L 30 41 L 30 40 z M 10 10 L 10 11 L 11 11 L 11 10 z M 68 29 L 68 30 L 69 30 L 69 29 z M 36 54 L 36 55 L 37 55 L 37 54 z M 57 45 L 57 46 L 58 46 L 58 45 z M 44 22 L 44 23 L 45 23 L 45 22 z M 8 60 L 8 61 L 9 61 L 9 60 z M 47 19 L 47 20 L 48 20 L 48 19 z M 12 63 L 12 64 L 13 64 L 13 63 z M 45 57 L 45 58 L 46 58 L 46 57 z M 65 46 L 65 47 L 66 47 L 66 46 z M 48 42 L 48 43 L 49 43 L 49 42 z M 52 37 L 52 38 L 53 38 L 53 37 z M 16 67 L 16 68 L 17 68 L 17 67 z M 38 16 L 38 17 L 39 17 L 39 16 z M 28 14 L 28 15 L 29 15 L 29 14 z M 31 27 L 31 28 L 32 28 L 32 27 z M 56 25 L 56 26 L 57 26 L 57 25 z M 7 34 L 7 35 L 8 35 L 8 34 z M 29 49 L 29 50 L 30 50 L 30 49 z M 57 54 L 57 55 L 58 55 L 58 54 z M 61 59 L 61 60 L 62 60 L 62 59 z M 25 29 L 25 30 L 26 30 L 26 29 z M 47 8 L 47 9 L 48 9 L 48 8 z M 12 38 L 12 39 L 13 39 L 13 38 z M 50 23 L 50 24 L 51 24 L 51 23 z M 20 38 L 20 39 L 21 39 L 21 38 z M 40 49 L 40 50 L 41 50 L 41 49 z M 62 34 L 62 35 L 63 35 L 63 34 z M 26 12 L 26 13 L 27 13 L 27 12 z M 65 39 L 65 40 L 66 40 L 66 39 z M 16 58 L 16 59 L 17 59 L 17 58 z M 38 11 L 38 12 L 39 12 L 39 11 z M 19 31 L 19 32 L 20 32 L 20 31 z M 28 21 L 28 22 L 29 22 L 29 21 z M 66 6 L 66 7 L 67 7 L 67 6 z M 49 62 L 49 63 L 50 63 L 50 62 z M 17 21 L 17 22 L 18 22 L 18 21 z M 4 14 L 4 15 L 5 15 L 5 14 z M 68 27 L 68 28 L 69 28 L 69 27 z M 54 26 L 54 27 L 55 27 L 55 26 z M 35 12 L 35 13 L 36 13 L 36 12 z M 57 63 L 57 64 L 58 64 L 58 63 z M 5 49 L 5 50 L 6 50 L 6 49 z M 61 60 L 61 61 L 62 61 L 62 60 z M 44 4 L 44 5 L 45 5 L 45 4 z M 50 30 L 50 31 L 51 31 L 51 30 z M 52 68 L 52 69 L 53 69 L 53 68 z M 37 43 L 37 44 L 38 44 L 38 43 z M 20 29 L 20 30 L 21 30 L 21 29 z M 45 43 L 45 44 L 46 44 L 46 43 z M 26 7 L 26 8 L 27 8 L 27 7 z M 65 64 L 65 65 L 66 65 L 66 64 z M 13 18 L 13 19 L 14 19 L 14 18 z M 16 49 L 16 50 L 17 50 L 17 49 z M 38 34 L 38 35 L 39 35 L 39 34 z M 21 66 L 21 67 L 22 67 L 22 66 z M 63 14 L 63 15 L 64 15 L 64 14 z M 28 28 L 28 29 L 29 29 L 29 28 z M 49 55 L 49 56 L 50 56 L 50 55 z M 56 31 L 56 32 L 57 32 L 57 31 z M 4 5 L 4 6 L 5 6 L 5 5 z M 42 22 L 42 23 L 43 23 L 43 22 z M 29 67 L 29 68 L 30 68 L 30 67 z M 57 8 L 57 9 L 58 9 L 58 8 z M 5 42 L 5 43 L 6 43 L 6 42 z M 44 11 L 44 12 L 45 12 L 45 11 z M 25 47 L 25 48 L 26 48 L 26 47 z M 37 60 L 37 61 L 38 61 L 38 60 z M 58 49 L 58 50 L 59 50 L 59 49 z M 62 36 L 62 37 L 63 37 L 63 36 z M 45 44 L 45 45 L 46 45 L 46 44 z M 26 30 L 26 31 L 27 31 L 27 30 z M 48 23 L 48 24 L 49 24 L 49 23 z M 66 16 L 66 17 L 67 17 L 67 16 z M 49 48 L 49 49 L 50 49 L 50 48 z M 14 34 L 14 35 L 15 35 L 15 34 z M 17 7 L 17 8 L 18 8 L 18 7 z M 4 28 L 4 29 L 5 29 L 5 28 z M 67 27 L 67 28 L 68 28 L 68 27 z M 37 68 L 37 69 L 38 69 L 38 68 z M 57 17 L 57 18 L 58 18 L 58 17 z M 44 18 L 44 19 L 45 19 L 45 18 z M 25 56 L 25 57 L 26 57 L 26 56 z M 8 32 L 8 33 L 9 33 L 9 32 z M 30 37 L 30 38 L 31 38 L 31 37 z M 37 53 L 37 54 L 38 54 L 38 53 z M 23 6 L 23 7 L 24 7 L 24 6 z M 62 47 L 62 48 L 63 48 L 63 47 z M 45 21 L 45 22 L 46 22 L 46 21 z M 13 60 L 13 61 L 14 61 L 14 60 z M 38 20 L 38 21 L 39 21 L 39 20 z M 21 44 L 21 45 L 22 45 L 22 44 z M 41 41 L 41 42 L 42 42 L 42 41 z M 63 28 L 63 29 L 64 29 L 64 28 z M 46 52 L 46 53 L 47 53 L 47 52 z M 14 29 L 14 30 L 15 30 L 15 29 z M 53 38 L 53 39 L 54 39 L 54 38 z M 42 16 L 42 17 L 43 17 L 43 16 z M 25 65 L 25 66 L 26 66 L 26 65 z M 8 31 L 8 32 L 9 32 L 9 31 z M 50 51 L 50 52 L 51 52 L 51 51 z M 20 18 L 20 19 L 21 19 L 21 18 z M 26 24 L 26 25 L 27 25 L 27 24 z M 13 37 L 13 38 L 14 38 L 14 37 z M 51 24 L 51 25 L 52 25 L 52 24 z M 21 37 L 21 38 L 22 38 L 22 37 z M 60 8 L 60 9 L 61 9 L 61 8 z M 41 50 L 41 51 L 42 51 L 42 50 z M 63 21 L 63 22 L 64 22 L 64 21 z M 46 63 L 46 64 L 47 64 L 47 63 z M 49 34 L 49 35 L 50 35 L 50 34 z M 14 4 L 14 5 L 15 5 L 15 4 z M 39 28 L 39 29 L 40 29 L 40 28 z M 4 26 L 4 27 L 5 27 L 5 26 z M 29 22 L 29 23 L 30 23 L 30 22 z M 54 62 L 54 63 L 55 63 L 55 62 z M 18 48 L 18 49 L 19 49 L 19 48 z M 57 35 L 57 36 L 58 36 L 58 35 z M 5 13 L 5 14 L 6 14 L 6 13 z M 8 6 L 8 7 L 9 7 L 9 6 z M 30 55 L 30 56 L 31 56 L 31 55 z M 20 9 L 20 10 L 21 10 L 21 9 z M 23 20 L 23 21 L 24 21 L 24 20 z M 6 44 L 6 45 L 7 45 L 7 44 z M 45 7 L 45 8 L 46 8 L 46 7 z M 9 49 L 9 50 L 10 50 L 10 49 z M 65 68 L 65 69 L 66 69 L 66 68 z M 34 67 L 34 68 L 35 68 L 35 67 z M 38 38 L 38 39 L 39 39 L 39 38 z M 60 15 L 60 16 L 61 16 L 61 15 z M 59 49 L 59 50 L 60 50 L 60 49 z M 63 26 L 63 27 L 64 27 L 64 26 z M 27 8 L 27 9 L 28 9 L 28 8 z M 49 27 L 49 28 L 50 28 L 50 27 z M 14 15 L 14 16 L 15 16 L 15 15 z M 39 5 L 39 6 L 40 6 L 40 5 z M 22 63 L 22 64 L 23 64 L 23 63 z M 42 66 L 42 67 L 43 67 L 43 66 z M 29 31 L 29 32 L 30 32 L 30 31 z M 15 28 L 15 29 L 16 29 L 16 28 z M 18 59 L 18 60 L 19 60 L 19 59 z M 57 28 L 57 29 L 58 29 L 58 28 z M 43 25 L 43 26 L 44 26 L 44 25 z M 8 13 L 8 14 L 9 14 L 9 13 z M 30 62 L 30 63 L 31 63 L 31 62 z M 58 13 L 58 14 L 59 14 L 59 13 z M 23 29 L 23 30 L 24 30 L 24 29 z M 45 8 L 45 9 L 46 9 L 46 8 z M 51 30 L 51 31 L 52 31 L 52 30 z M 21 23 L 21 24 L 22 24 L 22 23 z M 63 51 L 63 52 L 64 52 L 64 51 z M 46 49 L 46 50 L 47 50 L 47 49 z M 27 33 L 27 34 L 28 34 L 28 33 z M 10 67 L 10 68 L 11 68 L 11 67 z M 66 44 L 66 45 L 67 45 L 67 44 z M 49 20 L 49 21 L 50 21 L 50 20 z M 14 54 L 14 55 L 15 55 L 15 54 z M 36 15 L 36 16 L 37 16 L 37 15 z M 64 10 L 64 11 L 65 11 L 65 10 z M 67 15 L 67 16 L 68 16 L 68 15 z M 5 31 L 5 32 L 6 32 L 6 31 z M 30 9 L 30 10 L 31 10 L 31 9 z M 55 59 L 55 60 L 56 60 L 56 59 z M 6 62 L 6 63 L 7 63 L 7 62 z M 45 17 L 45 18 L 46 18 L 46 17 z M 66 68 L 66 69 L 67 69 L 67 68 z M 34 45 L 34 46 L 35 46 L 35 45 z M 38 56 L 38 57 L 39 57 L 39 56 z M 21 24 L 21 25 L 22 25 L 22 24 z M 59 39 L 59 40 L 60 40 L 60 39 z M 24 11 L 24 12 L 25 12 L 25 11 z M 46 24 L 46 25 L 47 25 L 47 24 z M 27 30 L 27 31 L 28 31 L 28 30 z M 10 58 L 10 59 L 11 59 L 11 58 z M 68 45 L 68 46 L 69 46 L 69 45 z M 64 33 L 64 34 L 65 34 L 65 33 z M 67 52 L 67 53 L 68 53 L 68 52 z M 18 5 L 18 6 L 19 6 L 19 5 z M 40 26 L 40 27 L 41 27 L 41 26 z M 5 32 L 5 33 L 6 33 L 6 32 z M 43 15 L 43 16 L 44 16 L 44 15 z M 19 38 L 19 39 L 20 39 L 20 38 z M 58 31 L 58 32 L 59 32 L 59 31 z M 23 43 L 23 44 L 24 44 L 24 43 z M 6 57 L 6 58 L 7 58 L 7 57 z M 26 52 L 26 53 L 27 53 L 27 52 z M 9 28 L 9 29 L 10 29 L 10 28 z M 31 43 L 31 44 L 32 44 L 32 43 z M 51 44 L 51 45 L 52 45 L 52 44 z M 56 41 L 56 42 L 57 42 L 57 41 z M 60 36 L 60 37 L 61 37 L 61 36 z M 46 35 L 46 36 L 47 36 L 47 35 z M 27 23 L 27 24 L 28 24 L 28 23 z M 49 6 L 49 7 L 50 7 L 50 6 z M 39 56 L 39 57 L 40 57 L 40 56 z M 64 24 L 64 25 L 65 25 L 65 24 z M 47 56 L 47 57 L 48 57 L 48 56 z M 12 22 L 12 23 L 13 23 L 13 22 z M 40 33 L 40 34 L 41 34 L 41 33 z M 5 25 L 5 26 L 6 26 L 6 25 z M 43 4 L 43 5 L 44 5 L 44 4 z M 52 12 L 52 13 L 53 13 L 53 12 z M 51 68 L 51 69 L 52 69 L 52 68 z M 55 9 L 55 10 L 56 10 L 56 9 z M 23 48 L 23 49 L 24 49 L 24 48 z M 6 16 L 6 17 L 7 17 L 7 16 z M 51 53 L 51 54 L 52 54 L 52 53 z M 34 31 L 34 32 L 35 32 L 35 31 z M 60 43 L 60 44 L 61 44 L 61 43 z M 59 53 L 59 54 L 60 54 L 60 53 z M 24 25 L 24 26 L 25 26 L 25 25 z M 7 59 L 7 60 L 8 60 L 8 59 z M 63 54 L 63 55 L 64 55 L 64 54 z M 46 10 L 46 11 L 47 11 L 47 10 z M 10 36 L 10 37 L 11 37 L 11 36 z M 35 60 L 35 61 L 36 61 L 36 60 z M 12 29 L 12 30 L 13 30 L 13 29 z M 15 8 L 15 9 L 16 9 L 16 8 z M 40 8 L 40 9 L 41 9 L 41 8 z M 43 61 L 43 62 L 44 62 L 44 61 z M 16 33 L 16 34 L 17 34 L 17 33 z M 55 14 L 55 15 L 56 15 L 56 14 z M 19 52 L 19 53 L 20 53 L 20 52 z M 58 25 L 58 26 L 59 26 L 59 25 z M 9 14 L 9 15 L 10 15 L 10 14 z M 34 6 L 34 7 L 35 7 L 35 6 z M 56 47 L 56 48 L 57 48 L 57 47 z M 59 18 L 59 19 L 60 19 L 60 18 z M 24 32 L 24 33 L 25 33 L 25 32 z M 7 64 L 7 65 L 8 65 L 8 64 z M 27 37 L 27 38 L 28 38 L 28 37 z M 32 48 L 32 49 L 33 49 L 33 48 z M 44 59 L 44 60 L 45 60 L 45 59 z M 64 46 L 64 47 L 65 47 L 65 46 z M 11 60 L 11 61 L 12 61 L 12 60 z M 67 51 L 67 52 L 68 52 L 68 51 z M 15 65 L 15 66 L 16 66 L 16 65 z M 37 12 L 37 13 L 38 13 L 38 12 z M 18 30 L 18 31 L 19 31 L 19 30 z M 40 7 L 40 8 L 41 8 L 41 7 z M 30 29 L 30 30 L 31 30 L 31 29 z M 52 10 L 52 11 L 53 11 L 53 10 z M 16 24 L 16 25 L 17 25 L 17 24 z M 55 23 L 55 24 L 56 24 L 56 23 z M 19 61 L 19 62 L 20 62 L 20 61 z M 23 62 L 23 63 L 24 63 L 24 62 z M 53 29 L 53 30 L 54 30 L 54 29 z M 34 9 L 34 10 L 35 10 L 35 9 z M 56 54 L 56 55 L 57 55 L 57 54 z M 4 44 L 4 45 L 5 45 L 5 44 z M 60 57 L 60 58 L 61 58 L 61 57 z M 59 11 L 59 12 L 60 12 L 60 11 z M 7 41 L 7 42 L 8 42 L 8 41 z M 10 22 L 10 23 L 11 23 L 11 22 z M 32 47 L 32 48 L 33 48 L 33 47 z M 36 50 L 36 51 L 37 51 L 37 50 z M 61 30 L 61 31 L 62 31 L 62 30 z M 25 8 L 25 9 L 26 9 L 26 8 z M 64 37 L 64 38 L 65 38 L 65 37 z M 12 11 L 12 12 L 13 12 L 13 11 z M 37 5 L 37 6 L 38 6 L 38 5 z M 40 14 L 40 15 L 41 15 L 41 14 z M 43 51 L 43 52 L 44 52 L 44 51 z M 16 23 L 16 24 L 17 24 L 17 23 z M 6 29 L 6 30 L 7 30 L 7 29 z M 28 58 L 28 59 L 29 59 L 29 58 z M 31 7 L 31 8 L 32 8 L 32 7 z M 53 22 L 53 23 L 54 23 L 54 22 z M 34 16 L 34 17 L 35 17 L 35 16 z M 4 51 L 4 52 L 5 52 L 5 51 z M 60 64 L 60 65 L 61 65 L 61 64 z M 27 59 L 27 60 L 28 60 L 28 59 z M 22 12 L 22 13 L 23 13 L 23 12 z M 25 17 L 25 18 L 26 18 L 26 17 z M 64 60 L 64 61 L 65 61 L 65 60 z M 47 20 L 47 21 L 48 21 L 48 20 z M 12 18 L 12 19 L 13 19 L 13 18 z M 11 50 L 11 51 L 12 51 L 12 50 z M 37 30 L 37 31 L 38 31 L 38 30 z M 62 6 L 62 7 L 63 7 L 63 6 z M 65 27 L 65 28 L 66 28 L 66 27 z M 52 56 L 52 57 L 53 57 L 53 56 z M 16 14 L 16 15 L 17 15 L 17 14 z M 28 65 L 28 66 L 29 66 L 29 65 z M 31 28 L 31 29 L 32 29 L 32 28 z M 59 25 L 59 26 L 60 26 L 60 25 z M 24 45 L 24 46 L 25 46 L 25 45 z M 7 23 L 7 24 L 8 24 L 8 23 z M 64 68 L 64 69 L 65 69 L 65 68 z M 29 38 L 29 39 L 30 39 L 30 38 z M 10 16 L 10 17 L 11 17 L 11 16 z M 68 7 L 68 8 L 69 8 L 69 7 z M 36 64 L 36 65 L 37 65 L 37 64 z M 22 7 L 22 8 L 23 8 L 23 7 z M 8 54 L 8 55 L 9 55 L 9 54 z M 64 59 L 64 60 L 65 60 L 65 59 z M 47 13 L 47 14 L 48 14 L 48 13 z M 12 57 L 12 58 L 13 58 L 13 57 z M 11 43 L 11 44 L 12 44 L 12 43 z M 50 10 L 50 11 L 51 11 L 51 10 z M 40 60 L 40 61 L 41 61 L 41 60 z M 65 20 L 65 21 L 66 21 L 66 20 z M 48 44 L 48 45 L 49 45 L 49 44 z M 19 24 L 19 25 L 20 25 L 20 24 z M 41 11 L 41 12 L 42 12 L 42 11 z M 53 16 L 53 17 L 54 17 L 54 16 z M 4 65 L 4 66 L 5 66 L 5 65 z M 24 52 L 24 53 L 25 53 L 25 52 z M 29 47 L 29 48 L 30 48 L 30 47 z M 32 52 L 32 53 L 33 53 L 33 52 z M 61 49 L 61 50 L 62 50 L 62 49 z M 25 35 L 25 36 L 26 36 L 26 35 z M 12 64 L 12 65 L 13 65 L 13 64 z M 20 48 L 20 49 L 21 49 L 21 48 z M 40 43 L 40 44 L 41 44 L 41 43 z M 62 24 L 62 25 L 63 25 L 63 24 z M 52 38 L 52 39 L 53 39 L 53 38 z M 16 60 L 16 61 L 17 61 L 17 60 z M 19 33 L 19 34 L 20 34 L 20 33 z M 41 4 L 41 5 L 42 5 L 42 4 z M 28 15 L 28 16 L 29 16 L 29 15 z M 66 28 L 66 29 L 67 29 L 67 28 z M 31 26 L 31 27 L 32 27 L 32 26 z M 56 26 L 56 27 L 57 27 L 57 26 z M 35 6 L 35 7 L 36 7 L 36 6 z M 8 36 L 8 37 L 9 37 L 9 36 z M 47 11 L 47 12 L 48 12 L 48 11 z M 33 44 L 33 45 L 34 45 L 34 44 z M 37 49 L 37 50 L 38 50 L 38 49 z M 40 50 L 40 51 L 41 51 L 41 50 z M 13 8 L 13 9 L 14 9 L 14 8 z M 16 59 L 16 60 L 17 60 L 17 59 z M 38 8 L 38 9 L 39 9 L 39 8 z M 66 7 L 66 8 L 67 8 L 67 7 z M 56 33 L 56 34 L 57 34 L 57 33 z M 7 10 L 7 11 L 8 11 L 8 10 z M 29 57 L 29 58 L 30 58 L 30 57 z M 32 10 L 32 11 L 33 11 L 33 10 z M 61 67 L 61 68 L 62 68 L 62 67 z M 44 5 L 44 6 L 45 6 L 45 5 z M 25 37 L 25 38 L 26 38 L 26 37 z M 8 51 L 8 52 L 9 52 L 9 51 z M 11 22 L 11 23 L 12 23 L 12 22 z M 50 31 L 50 32 L 51 32 L 51 31 z M 33 37 L 33 38 L 34 38 L 34 37 z M 20 30 L 20 31 L 21 31 L 21 30 z M 58 47 L 58 48 L 59 48 L 59 47 z M 26 4 L 26 5 L 27 5 L 27 4 z M 65 63 L 65 64 L 66 64 L 66 63 z M 13 17 L 13 18 L 14 18 L 14 17 z M 16 50 L 16 51 L 17 51 L 17 50 z M 38 35 L 38 36 L 39 36 L 39 35 z M 41 54 L 41 55 L 42 55 L 42 54 z M 63 17 L 63 18 L 64 18 L 64 17 z M 49 54 L 49 55 L 50 55 L 50 54 z M 14 24 L 14 25 L 15 25 L 15 24 z M 53 59 L 53 60 L 54 60 L 54 59 z M 4 6 L 4 7 L 5 7 L 5 6 z M 42 23 L 42 24 L 43 24 L 43 23 z M 7 19 L 7 20 L 8 20 L 8 19 z M 29 66 L 29 67 L 30 67 L 30 66 z M 32 33 L 32 34 L 33 34 L 33 33 z M 54 18 L 54 19 L 55 19 L 55 18 z M 57 7 L 57 8 L 58 8 L 58 7 z M 5 41 L 5 42 L 6 42 L 6 41 z M 25 46 L 25 47 L 26 47 L 26 46 z M 8 26 L 8 27 L 9 27 L 9 26 z M 30 43 L 30 44 L 31 44 L 31 43 z M 50 38 L 50 39 L 51 39 L 51 38 z M 33 62 L 33 63 L 34 63 L 34 62 z M 37 67 L 37 68 L 38 68 L 38 67 z M 9 53 L 9 54 L 10 54 L 10 53 z M 13 58 L 13 59 L 14 59 L 14 58 z M 16 41 L 16 42 L 17 42 L 17 41 z M 38 26 L 38 27 L 39 27 L 39 26 z M 21 58 L 21 59 L 22 59 L 22 58 z M 53 44 L 53 45 L 54 45 L 54 44 z M 4 29 L 4 30 L 5 30 L 5 29 z M 42 14 L 42 15 L 43 15 L 43 14 z M 29 11 L 29 12 L 30 12 L 30 11 z M 32 24 L 32 25 L 33 25 L 33 24 z M 54 13 L 54 14 L 55 14 L 55 13 z M 44 19 L 44 20 L 45 20 L 45 19 z M 25 55 L 25 56 L 26 56 L 26 55 z M 33 55 L 33 56 L 34 56 L 34 55 z M 37 52 L 37 53 L 38 53 L 38 52 z M 58 41 L 58 42 L 59 42 L 59 41 z M 23 9 L 23 10 L 24 10 L 24 9 z M 62 44 L 62 45 L 63 45 L 63 44 z M 26 22 L 26 23 L 27 23 L 27 22 z M 9 62 L 9 63 L 10 63 L 10 62 z M 48 15 L 48 16 L 49 16 L 49 15 z M 38 21 L 38 22 L 39 22 L 39 21 z M 21 51 L 21 52 L 22 52 L 22 51 z M 41 40 L 41 41 L 42 41 L 42 40 z M 46 53 L 46 54 L 47 54 L 47 53 z M 66 56 L 66 57 L 67 57 L 67 56 z M 49 40 L 49 41 L 50 41 L 50 40 z M 14 10 L 14 11 L 15 11 L 15 10 z M 53 37 L 53 38 L 54 38 L 54 37 z M 17 63 L 17 64 L 18 64 L 18 63 z M 39 22 L 39 23 L 40 23 L 40 22 z M 4 20 L 4 21 L 5 21 L 5 20 z M 32 23 L 32 24 L 33 24 L 33 23 z M 57 25 L 57 26 L 58 26 L 58 25 z M 62 68 L 62 69 L 63 69 L 63 68 z M 8 8 L 8 9 L 9 9 L 9 8 z M 30 45 L 30 46 L 31 46 L 31 45 z M 33 16 L 33 17 L 34 17 L 34 16 z M 55 39 L 55 40 L 56 40 L 56 39 z M 58 64 L 58 65 L 59 65 L 59 64 z M 23 14 L 23 15 L 24 15 L 24 14 z M 62 55 L 62 56 L 63 56 L 63 55 z M 45 29 L 45 30 L 46 30 L 46 29 z M 48 6 L 48 7 L 49 7 L 49 6 z M 34 57 L 34 58 L 35 58 L 35 57 z M 41 49 L 41 50 L 42 50 L 42 49 z M 63 20 L 63 21 L 64 21 L 64 20 z M 27 18 L 27 19 L 28 19 L 28 18 z M 14 5 L 14 6 L 15 6 L 15 5 z M 17 56 L 17 57 L 18 57 L 18 56 z M 39 31 L 39 32 L 40 32 L 40 31 z M 54 63 L 54 64 L 55 64 L 55 63 z M 43 35 L 43 36 L 44 36 L 44 35 z M 8 7 L 8 8 L 9 8 L 9 7 z M 33 9 L 33 10 L 34 10 L 34 9 z M 55 44 L 55 45 L 56 45 L 56 44 z M 20 10 L 20 11 L 21 11 L 21 10 z M 58 59 L 58 60 L 59 60 L 59 59 z M 62 62 L 62 63 L 63 63 L 63 62 z M 26 48 L 26 49 L 27 49 L 27 48 z M 13 45 L 13 46 L 14 46 L 14 45 z M 34 64 L 34 65 L 35 65 L 35 64 z M 38 39 L 38 40 L 39 40 L 39 39 z M 60 16 L 60 17 L 61 17 L 61 16 z M 63 45 L 63 46 L 64 46 L 64 45 z M 66 42 L 66 43 L 67 43 L 67 42 z M 49 26 L 49 27 L 50 27 L 50 26 z M 22 60 L 22 61 L 23 61 L 23 60 z M 42 67 L 42 68 L 43 68 L 43 67 z M 64 12 L 64 13 L 65 13 L 65 12 z M 29 30 L 29 31 L 30 31 L 30 30 z M 67 17 L 67 18 L 68 18 L 68 17 z M 15 31 L 15 32 L 16 32 L 16 31 z M 54 54 L 54 55 L 55 55 L 55 54 z M 18 56 L 18 57 L 19 57 L 19 56 z M 50 66 L 50 67 L 51 67 L 51 66 z M 33 34 L 33 35 L 34 35 L 34 34 z M 55 53 L 55 54 L 56 54 L 56 53 z M 58 18 L 58 19 L 59 19 L 59 18 z M 26 43 L 26 44 L 27 44 L 27 43 z M 9 25 L 9 26 L 10 26 L 10 25 z M 31 44 L 31 45 L 32 45 L 32 44 z M 34 43 L 34 44 L 35 44 L 35 43 z M 38 62 L 38 63 L 39 63 L 39 62 z M 21 22 L 21 23 L 22 23 L 22 22 z M 27 32 L 27 33 L 28 33 L 28 32 z M 10 64 L 10 65 L 11 65 L 11 64 z M 66 45 L 66 46 L 67 46 L 67 45 z M 49 19 L 49 20 L 50 20 L 50 19 z M 39 13 L 39 14 L 40 14 L 40 13 z M 22 55 L 22 56 L 23 56 L 23 55 z M 42 58 L 42 59 L 43 59 L 43 58 z M 47 61 L 47 62 L 48 62 L 48 61 z M 15 20 L 15 21 L 16 21 L 16 20 z M 18 67 L 18 68 L 19 68 L 19 67 z M 43 17 L 43 18 L 44 18 L 44 17 z M 33 27 L 33 28 L 34 28 L 34 27 z M 55 58 L 55 59 L 56 59 L 56 58 z M 19 40 L 19 41 L 20 41 L 20 40 z M 9 34 L 9 35 L 10 35 L 10 34 z M 51 38 L 51 39 L 52 39 L 52 38 z M 21 15 L 21 16 L 22 16 L 22 15 z M 60 30 L 60 31 L 61 31 L 61 30 z M 46 25 L 46 26 L 47 26 L 47 25 z M 49 12 L 49 13 L 50 13 L 50 12 z M 14 62 L 14 63 L 15 63 L 15 62 z M 35 57 L 35 58 L 36 58 L 36 57 z M 39 18 L 39 19 L 40 19 L 40 18 z M 64 34 L 64 35 L 65 35 L 65 34 z M 47 66 L 47 67 L 48 67 L 48 66 z M 15 13 L 15 14 L 16 14 L 16 13 z M 54 40 L 54 41 L 55 41 L 55 40 z M 18 10 L 18 11 L 19 11 L 19 10 z M 43 14 L 43 15 L 44 15 L 44 14 z M 30 17 L 30 18 L 31 18 L 31 17 z M 55 67 L 55 68 L 56 68 L 56 67 z M 58 28 L 58 29 L 59 29 L 59 28 z M 23 42 L 23 43 L 24 43 L 24 42 z M 6 54 L 6 55 L 7 55 L 7 54 z M 31 42 L 31 43 L 32 43 L 32 42 z M 34 21 L 34 22 L 35 22 L 35 21 z M 56 42 L 56 43 L 57 43 L 57 42 z M 60 37 L 60 38 L 61 38 L 61 37 z M 24 19 L 24 20 L 25 20 L 25 19 z M 63 64 L 63 65 L 64 65 L 64 64 z M 46 32 L 46 33 L 47 33 L 47 32 z M 10 50 L 10 51 L 11 51 L 11 50 z M 49 5 L 49 6 L 50 6 L 50 5 z M 14 41 L 14 42 L 15 42 L 15 41 z M 35 54 L 35 55 L 36 55 L 36 54 z M 39 59 L 39 60 L 40 60 L 40 59 z M 64 25 L 64 26 L 65 26 L 65 25 z M 67 60 L 67 61 L 68 61 L 68 60 z M 18 13 L 18 14 L 19 14 L 19 13 z M 40 34 L 40 35 L 41 35 L 41 34 z M 5 24 L 5 25 L 6 25 L 6 24 z M 55 8 L 55 9 L 56 9 L 56 8 z M 58 23 L 58 24 L 59 24 L 59 23 z M 23 51 L 23 52 L 24 52 L 24 51 z M 28 38 L 28 39 L 29 39 L 29 38 z M 9 4 L 9 5 L 10 5 L 10 4 z M 31 67 L 31 68 L 32 68 L 32 67 z M 21 9 L 21 10 L 22 10 L 22 9 z M 60 44 L 60 45 L 61 45 L 61 44 z M 24 26 L 24 27 L 25 27 L 25 26 z M 7 58 L 7 59 L 8 59 L 8 58 z M 63 57 L 63 58 L 64 58 L 64 57 z M 46 11 L 46 12 L 47 12 L 47 11 z M 14 48 L 14 49 L 15 49 L 15 48 z M 39 64 L 39 65 L 40 65 L 40 64 z M 47 48 L 47 49 L 48 49 L 48 48 z M 67 37 L 67 38 L 68 38 L 68 37 z M 40 9 L 40 10 L 41 10 L 41 9 z M 65 15 L 65 16 L 66 16 L 66 15 z M 52 4 L 52 5 L 53 5 L 53 4 z M 16 34 L 16 35 L 17 35 L 17 34 z M 19 55 L 19 56 L 20 56 L 20 55 z M 60 68 L 60 69 L 61 69 L 61 68 z M 6 8 L 6 9 L 7 9 L 7 8 z M 28 45 L 28 46 L 29 46 L 29 45 z M 31 56 L 31 57 L 32 57 L 32 56 z M 51 61 L 51 62 L 52 62 L 52 61 z M 34 7 L 34 8 L 35 8 L 35 7 z M 60 51 L 60 52 L 61 52 L 61 51 z M 59 13 L 59 14 L 60 14 L 60 13 z M 27 36 L 27 37 L 28 37 L 28 36 z M 10 28 L 10 29 L 11 29 L 11 28 z M 36 44 L 36 45 L 37 45 L 37 44 z M 64 47 L 64 48 L 65 48 L 65 47 z M 67 50 L 67 51 L 68 51 L 68 50 z M 15 64 L 15 65 L 16 65 L 16 64 z M 37 19 L 37 20 L 38 20 L 38 19 z M 40 16 L 40 17 L 41 17 L 41 16 z M 43 53 L 43 54 L 44 54 L 44 53 z M 65 8 L 65 9 L 66 9 L 66 8 z M 16 25 L 16 26 L 17 26 L 17 25 z M 55 22 L 55 23 L 56 23 L 56 22 z M 6 35 L 6 36 L 7 36 L 7 35 z M 28 52 L 28 53 L 29 53 L 29 52 z M 53 28 L 53 29 L 54 29 L 54 28 z M 34 14 L 34 15 L 35 15 L 35 14 z M 56 55 L 56 56 L 57 56 L 57 55 z M 46 13 L 46 14 L 47 14 L 47 13 z M 27 61 L 27 62 L 28 62 L 28 61 z M 32 40 L 32 41 L 33 41 L 33 40 z M 36 51 L 36 52 L 37 52 L 37 51 z M 35 45 L 35 46 L 36 46 L 36 45 z M 39 46 L 39 47 L 40 47 L 40 46 z M 44 67 L 44 68 L 45 68 L 45 67 z M 25 7 L 25 8 L 26 8 L 26 7 z M 64 38 L 64 39 L 65 39 L 65 38 z M 11 52 L 11 53 L 12 53 L 12 52 z M 43 50 L 43 51 L 44 51 L 44 50 z M 48 63 L 48 64 L 49 64 L 49 63 z M 52 66 L 52 67 L 53 67 L 53 66 z M 55 31 L 55 32 L 56 32 L 56 31 z M 41 24 L 41 25 L 42 25 L 42 24 z M 6 26 L 6 27 L 7 27 L 7 26 z M 28 59 L 28 60 L 29 60 L 29 59 z M 53 21 L 53 22 L 54 22 L 54 21 z M 34 17 L 34 18 L 35 18 L 35 17 z M 4 36 L 4 37 L 5 37 L 5 36 z M 60 65 L 60 66 L 61 66 L 61 65 z M 59 35 L 59 36 L 60 36 L 60 35 z M 10 14 L 10 15 L 11 15 L 11 14 z M 57 41 L 57 42 L 58 42 L 58 41 z M 61 38 L 61 39 L 62 39 L 62 38 z M 64 61 L 64 62 L 65 62 L 65 61 z M 47 23 L 47 24 L 48 24 L 48 23 z M 40 54 L 40 55 L 41 55 L 41 54 z M 62 7 L 62 8 L 63 8 L 63 7 z M 43 43 L 43 44 L 44 44 L 44 43 z M 13 20 L 13 21 L 14 21 L 14 20 z M 52 57 L 52 58 L 53 58 L 53 57 z M 19 18 L 19 19 L 20 19 L 20 18 z M 6 21 L 6 22 L 7 22 L 7 21 z M 56 5 L 56 6 L 57 6 L 57 5 z M 59 24 L 59 25 L 60 25 L 60 24 z M 68 8 L 68 9 L 69 9 L 69 8 z M 32 62 L 32 63 L 33 63 L 33 62 z M 36 65 L 36 66 L 37 66 L 37 65 z M 61 47 L 61 48 L 62 48 L 62 47 z M 25 25 L 25 26 L 26 26 L 26 25 z M 8 55 L 8 56 L 9 56 L 9 55 z M 12 58 L 12 59 L 13 59 L 13 58 z M 11 42 L 11 43 L 12 43 L 12 42 z M 15 39 L 15 40 L 16 40 L 16 39 z M 37 22 L 37 23 L 38 23 L 38 22 z M 20 58 L 20 59 L 21 59 L 21 58 z M 65 51 L 65 52 L 66 52 L 66 51 z M 13 29 L 13 30 L 14 30 L 14 29 z M 52 48 L 52 49 L 53 49 L 53 48 z M 19 27 L 19 28 L 20 28 L 20 27 z M 28 9 L 28 10 L 29 10 L 29 9 z M 66 26 L 66 27 L 67 27 L 67 26 z M 53 7 L 53 8 L 54 8 L 54 7 z M 4 66 L 4 67 L 5 67 L 5 66 z M 10 8 L 10 9 L 11 9 L 11 8 z M 32 53 L 32 54 L 33 54 L 33 53 z M 36 56 L 36 57 L 37 57 L 37 56 z M 35 8 L 35 9 L 36 9 L 36 8 z M 57 59 L 57 60 L 58 60 L 58 59 z M 61 48 L 61 49 L 62 49 L 62 48 z M 25 34 L 25 35 L 26 35 L 26 34 z M 8 62 L 8 63 L 9 63 L 9 62 z M 12 65 L 12 66 L 13 66 L 13 65 z M 50 18 L 50 19 L 51 19 L 51 18 z M 20 49 L 20 50 L 21 50 L 21 49 z M 40 36 L 40 37 L 41 37 L 41 36 z M 13 6 L 13 7 L 14 7 L 14 6 z M 52 39 L 52 40 L 53 40 L 53 39 z M 38 14 L 38 15 L 39 15 L 39 14 z M 41 19 L 41 20 L 42 20 L 42 19 z M 28 16 L 28 17 L 29 17 L 29 16 z M 53 8 L 53 9 L 54 9 L 54 8 z M 17 26 L 17 27 L 18 27 L 18 26 z M 56 27 L 56 28 L 57 28 L 57 27 z M 7 4 L 7 5 L 8 5 L 8 4 z M 32 12 L 32 13 L 33 13 L 33 12 z M 35 17 L 35 18 L 36 18 L 36 17 z M 57 52 L 57 53 L 58 53 L 58 52 z M 61 57 L 61 58 L 62 58 L 62 57 z M 44 31 L 44 32 L 45 32 L 45 31 z M 8 37 L 8 38 L 9 38 L 9 37 z M 37 48 L 37 49 L 38 49 L 38 48 z M 20 40 L 20 41 L 21 41 L 21 40 z M 45 64 L 45 65 L 46 65 L 46 64 z M 65 37 L 65 38 L 66 38 L 66 37 z M 48 35 L 48 36 L 49 36 L 49 35 z M 16 52 L 16 53 L 17 53 L 17 52 z M 38 9 L 38 10 L 39 10 L 39 9 z M 41 12 L 41 13 L 42 13 L 42 12 z M 66 4 L 66 5 L 67 5 L 67 4 z M 4 16 L 4 17 L 5 17 L 5 16 z M 7 13 L 7 14 L 8 14 L 8 13 z M 54 24 L 54 25 L 55 25 L 55 24 z M 57 61 L 57 62 L 58 62 L 58 61 z M 61 66 L 61 67 L 62 67 L 62 66 z M 44 6 L 44 7 L 45 7 L 45 6 z M 25 36 L 25 37 L 26 37 L 26 36 z M 8 44 L 8 45 L 9 45 L 9 44 z M 12 47 L 12 48 L 13 48 L 13 47 z M 33 36 L 33 37 L 34 37 L 34 36 z M 37 41 L 37 42 L 38 42 L 38 41 z M 62 43 L 62 44 L 63 44 L 63 43 z M 45 41 L 45 42 L 46 42 L 46 41 z M 65 62 L 65 63 L 66 63 L 66 62 z M 41 53 L 41 54 L 42 54 L 42 53 z M 63 16 L 63 17 L 64 17 L 64 16 z M 28 30 L 28 31 L 29 31 L 29 30 z M 14 25 L 14 26 L 15 26 L 15 25 z M 17 12 L 17 13 L 18 13 L 18 12 z M 4 7 L 4 8 L 5 8 L 5 7 z M 42 20 L 42 21 L 43 21 L 43 20 z M 29 65 L 29 66 L 30 66 L 30 65 z M 32 34 L 32 35 L 33 35 L 33 34 z M 8 27 L 8 28 L 9 28 L 9 27 z M 30 40 L 30 41 L 31 41 L 31 40 z M 33 61 L 33 62 L 34 62 L 34 61 z M 58 39 L 58 40 L 59 40 L 59 39 z M 65 55 L 65 56 L 66 56 L 66 55 z M 48 17 L 48 18 L 49 18 L 49 17 z M 13 57 L 13 58 L 14 58 L 14 57 z M 16 42 L 16 43 L 17 43 L 17 42 z M 21 57 L 21 58 L 22 58 L 22 57 z M 41 62 L 41 63 L 42 63 L 42 62 z M 66 54 L 66 55 L 67 55 L 67 54 z M 17 5 L 17 6 L 18 6 L 18 5 z M 4 30 L 4 31 L 5 31 L 5 30 z M 67 21 L 67 22 L 68 22 L 68 21 z M 54 10 L 54 11 L 55 11 L 55 10 z M 18 36 L 18 37 L 19 37 L 19 36 z M 25 54 L 25 55 L 26 55 L 26 54 z M 8 34 L 8 35 L 9 35 L 9 34 z M 50 46 L 50 47 L 51 47 L 51 46 z M 33 54 L 33 55 L 34 55 L 34 54 z M 37 59 L 37 60 L 38 60 L 38 59 z M 20 13 L 20 14 L 21 14 L 21 13 z M 62 45 L 62 46 L 63 46 L 63 45 z M 48 8 L 48 9 L 49 9 L 49 8 z M 13 66 L 13 67 L 14 67 L 14 66 z M 51 13 L 51 14 L 52 14 L 52 13 z M 34 55 L 34 56 L 35 56 L 35 55 z M 21 50 L 21 51 L 22 51 L 22 50 z M 41 39 L 41 40 L 42 40 L 42 39 z M 63 30 L 63 31 L 64 31 L 64 30 z M 14 11 L 14 12 L 15 12 L 15 11 z M 17 62 L 17 63 L 18 63 L 18 62 z M 39 25 L 39 26 L 40 26 L 40 25 z M 67 34 L 67 35 L 68 35 L 68 34 z M 54 5 L 54 6 L 55 6 L 55 5 z M 18 47 L 18 48 L 19 48 L 19 47 z M 25 63 L 25 64 L 26 64 L 26 63 z M 30 58 L 30 59 L 31 59 L 31 58 z M 33 15 L 33 16 L 34 16 L 34 15 z M 58 65 L 58 66 L 59 66 L 59 65 z M 23 17 L 23 18 L 24 18 L 24 17 z M 45 28 L 45 29 L 46 29 L 46 28 z M 26 46 L 26 47 L 27 47 L 27 46 z M 9 38 L 9 39 L 10 39 L 10 38 z M 13 43 L 13 44 L 14 44 L 14 43 z M 34 62 L 34 63 L 35 63 L 35 62 z M 21 43 L 21 44 L 22 44 L 22 43 z M 60 10 L 60 11 L 61 11 L 61 10 z M 41 48 L 41 49 L 42 49 L 42 48 z M 46 61 L 46 62 L 47 62 L 47 61 z M 66 64 L 66 65 L 67 65 L 67 64 z M 14 18 L 14 19 L 15 19 L 15 18 z M 39 30 L 39 31 L 40 31 L 40 30 z M 22 66 L 22 67 L 23 67 L 23 66 z M 42 9 L 42 10 L 43 10 L 43 9 z M 29 20 L 29 21 L 30 21 L 30 20 z M 54 60 L 54 61 L 55 61 L 55 60 z M 57 33 L 57 34 L 58 34 L 58 33 z M 43 34 L 43 35 L 44 35 L 44 34 z M 50 56 L 50 57 L 51 57 L 51 56 z M 55 47 L 55 48 L 56 48 L 56 47 z M 20 11 L 20 12 L 21 12 L 21 11 z M 45 5 L 45 6 L 46 6 L 46 5 z M 9 47 L 9 48 L 10 48 L 10 47 z M 13 44 L 13 45 L 14 45 L 14 44 z M 38 36 L 38 37 L 39 37 L 39 36 z M 21 28 L 21 29 L 22 29 L 22 28 z M 59 51 L 59 52 L 60 52 L 60 51 z M 63 44 L 63 45 L 64 45 L 64 44 z M 46 36 L 46 37 L 47 37 L 47 36 z M 10 62 L 10 63 L 11 63 L 11 62 z M 49 25 L 49 26 L 50 26 L 50 25 z M 14 13 L 14 14 L 15 14 L 15 13 z M 17 48 L 17 49 L 18 49 L 18 48 z M 22 61 L 22 62 L 23 62 L 23 61 z M 64 13 L 64 14 L 65 14 L 65 13 z M 67 16 L 67 17 L 68 17 L 68 16 z M 18 57 L 18 58 L 19 58 L 19 57 z M 5 4 L 5 5 L 6 5 L 6 4 z M 43 27 L 43 28 L 44 28 L 44 27 z M 8 15 L 8 16 L 9 16 L 9 15 z M 33 33 L 33 34 L 34 34 L 34 33 z M 55 52 L 55 53 L 56 53 L 56 52 z M 58 19 L 58 20 L 59 20 L 59 19 z M 6 37 L 6 38 L 7 38 L 7 37 z M 26 40 L 26 41 L 27 41 L 27 40 z M 9 24 L 9 25 L 10 25 L 10 24 z M 51 40 L 51 41 L 52 41 L 52 40 z M 34 40 L 34 41 L 35 41 L 35 40 z M 38 63 L 38 64 L 39 64 L 39 63 z M 46 47 L 46 48 L 47 48 L 47 47 z M 10 65 L 10 66 L 11 66 L 11 65 z M 66 50 L 66 51 L 67 51 L 67 50 z M 49 18 L 49 19 L 50 19 L 50 18 z M 14 52 L 14 53 L 15 53 L 15 52 z M 36 17 L 36 18 L 37 18 L 37 17 z M 17 41 L 17 42 L 18 42 L 18 41 z M 64 4 L 64 5 L 65 5 L 65 4 z M 47 60 L 47 61 L 48 61 L 48 60 z M 67 57 L 67 58 L 68 58 L 68 57 z M 15 23 L 15 24 L 16 24 L 16 23 z M 54 46 L 54 47 L 55 47 L 55 46 z M 18 64 L 18 65 L 19 65 L 19 64 z M 52 32 L 52 33 L 53 33 L 53 32 z M 58 10 L 58 11 L 59 11 L 59 10 z M 6 60 L 6 61 L 7 61 L 7 60 z M 26 67 L 26 68 L 27 68 L 27 67 z M 51 49 L 51 50 L 52 50 L 52 49 z M 34 51 L 34 52 L 35 52 L 35 51 z M 21 14 L 21 15 L 22 15 L 22 14 z M 59 65 L 59 66 L 60 66 L 60 65 z M 27 24 L 27 25 L 28 25 L 28 24 z M 10 56 L 10 57 L 11 57 L 11 56 z M 49 11 L 49 12 L 50 12 L 50 11 z M 36 8 L 36 9 L 37 9 L 37 8 z M 35 56 L 35 57 L 36 57 L 36 56 z M 22 47 L 22 48 L 23 48 L 23 47 z M 42 50 L 42 51 L 43 51 L 43 50 z M 64 35 L 64 36 L 65 36 L 65 35 z M 47 53 L 47 54 L 48 54 L 48 53 z M 54 41 L 54 42 L 55 42 L 55 41 z M 40 20 L 40 21 L 41 21 L 41 20 z M 52 23 L 52 24 L 53 24 L 53 23 z M 55 66 L 55 67 L 56 67 L 56 66 z M 58 29 L 58 30 L 59 30 L 59 29 z M 23 45 L 23 46 L 24 46 L 24 45 z M 6 55 L 6 56 L 7 56 L 7 55 z M 26 58 L 26 59 L 27 59 L 27 58 z M 9 10 L 9 11 L 10 11 L 10 10 z M 34 26 L 34 27 L 35 27 L 35 26 z M 56 43 L 56 44 L 57 44 L 57 43 z M 60 38 L 60 39 L 61 39 L 61 38 z M 59 62 L 59 63 L 60 63 L 60 62 z M 24 12 L 24 13 L 25 13 L 25 12 z M 7 52 L 7 53 L 8 53 L 8 52 z M 63 67 L 63 68 L 64 68 L 64 67 z M 46 33 L 46 34 L 47 34 L 47 33 z M 27 49 L 27 50 L 28 50 L 28 49 z M 68 38 L 68 39 L 69 39 L 69 38 z M 36 31 L 36 32 L 37 32 L 37 31 z M 22 38 L 22 39 L 23 39 L 23 38 z M 12 24 L 12 25 L 13 25 L 13 24 z M 67 63 L 67 64 L 68 64 L 68 63 z M 18 18 L 18 19 L 19 19 L 19 18 z M 40 35 L 40 36 L 41 36 L 41 35 z M 43 6 L 43 7 L 44 7 L 44 6 z M 30 25 L 30 26 L 31 26 L 31 25 z M 55 11 L 55 12 L 56 12 L 56 11 z M 58 20 L 58 21 L 59 21 L 59 20 z M 6 14 L 6 15 L 7 15 L 7 14 z M 56 50 L 56 51 L 57 51 L 57 50 z M 21 8 L 21 9 L 22 9 L 22 8 z M 59 55 L 59 56 L 60 56 L 60 55 z M 63 56 L 63 57 L 64 57 L 64 56 z M 46 8 L 46 9 L 47 9 L 47 8 z M 27 46 L 27 47 L 28 47 L 28 46 z M 10 42 L 10 43 L 11 43 L 11 42 z M 68 61 L 68 62 L 69 62 L 69 61 z M 14 49 L 14 50 L 15 50 L 15 49 z M 22 33 L 22 34 L 23 34 L 23 33 z M 64 49 L 64 50 L 65 50 L 65 49 z M 47 51 L 47 52 L 48 52 L 48 51 z M 12 31 L 12 32 L 13 32 L 13 31 z M 67 36 L 67 37 L 68 37 L 68 36 z M 18 21 L 18 22 L 19 22 L 19 21 z M 40 10 L 40 11 L 41 11 L 41 10 z M 43 63 L 43 64 L 44 64 L 44 63 z M 52 5 L 52 6 L 53 6 L 53 5 z M 16 35 L 16 36 L 17 36 L 17 35 z M 28 46 L 28 47 L 29 47 L 29 46 z M 9 12 L 9 13 L 10 13 L 10 12 z M 31 59 L 31 60 L 32 60 L 32 59 z M 51 60 L 51 61 L 52 61 L 52 60 z M 34 4 L 34 5 L 35 5 L 35 4 z M 60 52 L 60 53 L 61 53 L 61 52 z M 59 12 L 59 13 L 60 13 L 60 12 z M 7 66 L 7 67 L 8 67 L 8 66 z M 46 19 L 46 20 L 47 20 L 47 19 z M 32 50 L 32 51 L 33 51 L 33 50 z M 39 40 L 39 41 L 40 41 L 40 40 z M 47 40 L 47 41 L 48 41 L 48 40 z M 12 6 L 12 7 L 13 7 L 13 6 z M 37 18 L 37 19 L 38 19 L 38 18 z M 18 28 L 18 29 L 19 29 L 19 28 z M 40 17 L 40 18 L 41 18 L 41 17 z M 65 7 L 65 8 L 66 8 L 66 7 z M 52 60 L 52 61 L 53 61 L 53 60 z M 55 25 L 55 26 L 56 26 L 56 25 z M 19 63 L 19 64 L 20 64 L 20 63 z M 28 53 L 28 54 L 29 54 L 29 53 z M 31 16 L 31 17 L 32 17 L 32 16 z M 34 15 L 34 16 L 35 16 L 35 15 z M 24 41 L 24 42 L 25 42 L 25 41 z M 27 60 L 27 61 L 28 61 L 28 60 z M 10 20 L 10 21 L 11 21 L 11 20 z M 68 59 L 68 60 L 69 60 L 69 59 z M 36 36 L 36 37 L 37 37 L 37 36 z M 35 44 L 35 45 L 36 45 L 36 44 z M 61 28 L 61 29 L 62 29 L 62 28 z M 64 39 L 64 40 L 65 40 L 65 39 z M 12 13 L 12 14 L 13 14 L 13 13 z M 15 56 L 15 57 L 16 57 L 16 56 z M 40 56 L 40 57 L 41 57 L 41 56 z M 43 45 L 43 46 L 44 46 L 44 45 z M 65 32 L 65 33 L 66 33 L 66 32 z M 55 30 L 55 31 L 56 31 L 56 30 z M 41 23 L 41 24 L 42 24 L 42 23 z M 31 9 L 31 10 L 32 10 L 32 9 z M 56 63 L 56 64 L 57 64 L 57 63 z M 4 37 L 4 38 L 5 38 L 5 37 z M 24 48 L 24 49 L 25 49 L 25 48 z M 7 48 L 7 49 L 8 49 L 8 48 z M 35 21 L 35 22 L 36 22 L 36 21 z M 22 10 L 22 11 L 23 11 L 23 10 z M 44 43 L 44 44 L 45 44 L 45 43 z M 8 57 L 8 58 L 9 58 L 9 57 z M 64 62 L 64 63 L 65 63 L 65 62 z M 15 49 L 15 50 L 16 50 L 16 49 z M 37 28 L 37 29 L 38 29 L 38 28 z M 62 4 L 62 5 L 63 5 L 63 4 z M 43 42 L 43 43 L 44 43 L 44 42 z M 65 25 L 65 26 L 66 26 L 66 25 z M 48 55 L 48 56 L 49 56 L 49 55 z M 13 27 L 13 28 L 14 28 L 14 27 z M 16 8 L 16 9 L 17 9 L 17 8 z M 19 13 L 19 14 L 20 14 L 20 13 z M 41 32 L 41 33 L 42 33 L 42 32 z M 31 30 L 31 31 L 32 31 L 32 30 z M 53 13 L 53 14 L 54 14 L 54 13 z M 56 6 L 56 7 L 57 7 L 57 6 z M 59 27 L 59 28 L 60 28 L 60 27 z M 29 36 L 29 37 L 30 37 L 30 36 z M 10 6 L 10 7 L 11 7 L 11 6 z M 68 9 L 68 10 L 69 10 L 69 9 z M 32 63 L 32 64 L 33 64 L 33 63 z M 35 34 L 35 35 L 36 35 L 36 34 z M 57 49 L 57 50 L 58 50 L 58 49 z M 22 5 L 22 6 L 23 6 L 23 5 z M 25 24 L 25 25 L 26 25 L 26 24 z M 8 64 L 8 65 L 9 65 L 9 64 z M 64 53 L 64 54 L 65 54 L 65 53 z M 37 21 L 37 22 L 38 22 L 38 21 z M 20 59 L 20 60 L 21 60 L 21 59 z M 40 62 L 40 63 L 41 63 L 41 62 z M 65 50 L 65 51 L 66 51 L 66 50 z M 48 46 L 48 47 L 49 47 L 49 46 z M 13 28 L 13 29 L 14 29 L 14 28 z M 52 49 L 52 50 L 53 50 L 53 49 z M 28 10 L 28 11 L 29 11 L 29 10 z M 31 23 L 31 24 L 32 24 L 32 23 z M 17 32 L 17 33 L 18 33 L 18 32 z M 4 67 L 4 68 L 5 68 L 5 67 z M 10 9 L 10 10 L 11 10 L 11 9 z M 32 54 L 32 55 L 33 55 L 33 54 z M 61 55 L 61 56 L 62 56 L 62 55 z M 12 66 L 12 67 L 13 67 L 13 66 z M 11 34 L 11 35 L 12 35 L 12 34 z M 33 49 L 33 50 L 34 50 L 34 49 z M 37 46 L 37 47 L 38 47 L 38 46 z M 40 37 L 40 38 L 41 38 L 41 37 z M 62 22 L 62 23 L 63 23 L 63 22 z M 65 43 L 65 44 L 66 44 L 66 43 z M 52 40 L 52 41 L 53 41 L 53 40 z M 16 62 L 16 63 L 17 63 L 17 62 z M 19 35 L 19 36 L 20 36 L 20 35 z M 28 17 L 28 18 L 29 18 L 29 17 z M 66 34 L 66 35 L 67 35 L 67 34 z M 49 66 L 49 67 L 50 67 L 50 66 z M 53 63 L 53 64 L 54 64 L 54 63 z M 17 25 L 17 26 L 18 26 L 18 25 z M 7 7 L 7 8 L 8 8 L 8 7 z M 68 23 L 68 24 L 69 24 L 69 23 z M 54 30 L 54 31 L 55 31 L 55 30 z M 35 16 L 35 17 L 36 17 L 36 16 z M 61 56 L 61 57 L 62 57 L 62 56 z M 25 42 L 25 43 L 26 43 L 26 42 z M 8 38 L 8 39 L 9 39 L 9 38 z M 12 41 L 12 42 L 13 42 L 13 41 z M 11 27 L 11 28 L 12 28 L 12 27 z M 33 42 L 33 43 L 34 43 L 34 42 z M 20 41 L 20 42 L 21 42 L 21 41 z M 45 39 L 45 40 L 46 40 L 46 39 z M 65 36 L 65 37 L 66 37 L 66 36 z M 13 14 L 13 15 L 14 15 L 14 14 z M 16 53 L 16 54 L 17 54 L 17 53 z M 28 24 L 28 25 L 29 25 L 29 24 z M 49 59 L 49 60 L 50 60 L 50 59 z M 17 18 L 17 19 L 18 19 L 18 18 z M 56 35 L 56 36 L 57 36 L 57 35 z M 4 17 L 4 18 L 5 18 L 5 17 z M 42 34 L 42 35 L 43 35 L 43 34 z M 7 12 L 7 13 L 8 13 L 8 12 z M 29 63 L 29 64 L 30 64 L 30 63 z M 54 25 L 54 26 L 55 26 L 55 25 z M 5 38 L 5 39 L 6 39 L 6 38 z M 61 65 L 61 66 L 62 66 L 62 65 z M 25 51 L 25 52 L 26 52 L 26 51 z M 8 45 L 8 46 L 9 46 L 9 45 z M 11 16 L 11 17 L 12 17 L 12 16 z M 37 40 L 37 41 L 38 41 L 38 40 z M 58 45 L 58 46 L 59 46 L 59 45 z M 45 40 L 45 41 L 46 41 L 46 40 z M 26 10 L 26 11 L 27 11 L 27 10 z M 9 58 L 9 59 L 10 59 L 10 58 z M 65 61 L 65 62 L 66 62 L 66 61 z M 48 27 L 48 28 L 49 28 L 49 27 z M 16 44 L 16 45 L 17 45 L 17 44 z M 21 55 L 21 56 L 22 56 L 22 55 z M 41 52 L 41 53 L 42 53 L 42 52 z M 28 31 L 28 32 L 29 32 L 29 31 z M 66 12 L 66 13 L 67 13 L 67 12 z M 14 22 L 14 23 L 15 23 L 15 22 z M 53 57 L 53 58 L 54 58 L 54 57 z M 17 11 L 17 12 L 18 12 L 18 11 z M 4 8 L 4 9 L 5 9 L 5 8 z M 29 64 L 29 65 L 30 65 L 30 64 z M 32 35 L 32 36 L 33 36 L 33 35 z M 57 5 L 57 6 L 58 6 L 58 5 z M 25 44 L 25 45 L 26 45 L 26 44 z M 33 60 L 33 61 L 34 61 L 34 60 z M 37 65 L 37 66 L 38 66 L 38 65 z M 45 49 L 45 50 L 46 50 L 46 49 z M 13 56 L 13 57 L 14 57 L 14 56 z M 51 7 L 51 8 L 52 8 L 52 7 z M 16 43 L 16 44 L 17 44 L 17 43 z M 41 61 L 41 62 L 42 62 L 42 61 z M 9 68 L 9 69 L 10 69 L 10 68 z M 4 31 L 4 32 L 5 32 L 5 31 z M 29 9 L 29 10 L 30 10 L 30 9 z M 67 20 L 67 21 L 68 21 L 68 20 z M 54 11 L 54 12 L 55 12 L 55 11 z M 18 37 L 18 38 L 19 38 L 19 37 z M 25 53 L 25 54 L 26 54 L 26 53 z M 8 35 L 8 36 L 9 36 L 9 35 z M 50 47 L 50 48 L 51 48 L 51 47 z M 20 14 L 20 15 L 21 15 L 21 14 z M 58 63 L 58 64 L 59 64 L 59 63 z M 26 20 L 26 21 L 27 21 L 27 20 z M 13 65 L 13 66 L 14 66 L 14 65 z M 51 12 L 51 13 L 52 13 L 52 12 z M 34 52 L 34 53 L 35 53 L 35 52 z M 38 51 L 38 52 L 39 52 L 39 51 z M 41 38 L 41 39 L 42 39 L 42 38 z M 46 67 L 46 68 L 47 68 L 47 67 z M 49 38 L 49 39 L 50 39 L 50 38 z M 17 61 L 17 62 L 18 62 L 18 61 z M 39 24 L 39 25 L 40 25 L 40 24 z M 42 7 L 42 8 L 43 8 L 43 7 z M 67 29 L 67 30 L 68 30 L 68 29 z M 54 66 L 54 67 L 55 67 L 55 66 z M 18 44 L 18 45 L 19 45 L 19 44 z M 25 62 L 25 63 L 26 63 L 26 62 z M 8 10 L 8 11 L 9 11 L 9 10 z M 50 54 L 50 55 L 51 55 L 51 54 z M 20 5 L 20 6 L 21 6 L 21 5 z M 26 47 L 26 48 L 27 48 L 27 47 z M 34 63 L 34 64 L 35 64 L 35 63 z M 21 42 L 21 43 L 22 43 L 22 42 z M 46 42 L 46 43 L 47 43 L 47 42 z M 27 12 L 27 13 L 28 13 L 28 12 z M 10 68 L 10 69 L 11 69 L 11 68 z M 49 31 L 49 32 L 50 32 L 50 31 z M 14 19 L 14 20 L 15 20 L 15 19 z M 17 54 L 17 55 L 18 55 L 18 54 z M 39 33 L 39 34 L 40 34 L 40 33 z M 22 67 L 22 68 L 23 68 L 23 67 z M 42 62 L 42 63 L 43 63 L 43 62 z M 29 27 L 29 28 L 30 28 L 30 27 z M 67 10 L 67 11 L 68 11 L 68 10 z M 18 55 L 18 56 L 19 56 L 19 55 z M 57 32 L 57 33 L 58 33 L 58 32 z M 5 18 L 5 19 L 6 19 L 6 18 z M 43 29 L 43 30 L 44 30 L 44 29 z M 8 17 L 8 18 L 9 18 L 9 17 z M 33 7 L 33 8 L 34 8 L 34 7 z M 58 57 L 58 58 L 59 58 L 59 57 z M 6 43 L 6 44 L 7 44 L 7 43 z M 62 60 L 62 61 L 63 61 L 63 60 z M 26 38 L 26 39 L 27 39 L 27 38 z M 13 51 L 13 52 L 14 52 L 14 51 z M 51 34 L 51 35 L 52 35 L 52 34 z M 34 38 L 34 39 L 35 39 L 35 38 z M 38 37 L 38 38 L 39 38 L 39 37 z M 59 50 L 59 51 L 60 51 L 60 50 z M 63 47 L 63 48 L 64 48 L 64 47 z M 46 37 L 46 38 L 47 38 L 47 37 z M 10 63 L 10 64 L 11 64 L 11 63 z M 49 24 L 49 25 L 50 25 L 50 24 z M 14 58 L 14 59 L 15 59 L 15 58 z M 17 47 L 17 48 L 18 48 L 18 47 z M 67 19 L 67 20 L 68 20 L 68 19 z M 54 52 L 54 53 L 55 53 L 55 52 z M 18 62 L 18 63 L 19 63 L 19 62 z M 43 26 L 43 27 L 44 27 L 44 26 z M 30 61 L 30 62 L 31 62 L 31 61 z M 33 32 L 33 33 L 34 33 L 34 32 z M 55 55 L 55 56 L 56 56 L 56 55 z M 58 16 L 58 17 L 59 17 L 59 16 z M 23 30 L 23 31 L 24 31 L 24 30 z M 6 66 L 6 67 L 7 67 L 7 66 z M 45 13 L 45 14 L 46 14 L 46 13 z M 38 60 L 38 61 L 39 61 L 39 60 z M 59 43 L 59 44 L 60 44 L 60 43 z M 46 44 L 46 45 L 47 45 L 47 44 z M 27 34 L 27 35 L 28 35 L 28 34 z M 10 54 L 10 55 L 11 55 L 11 54 z M 36 18 L 36 19 L 37 19 L 37 18 z M 17 40 L 17 41 L 18 41 L 18 40 z M 22 53 L 22 54 L 23 54 L 23 53 z M 15 22 L 15 23 L 16 23 L 16 22 z M 22 68 L 22 69 L 23 69 L 23 68 z M 5 28 L 5 29 L 6 29 L 6 28 z M 43 19 L 43 20 L 44 20 L 44 19 z M 30 4 L 30 5 L 31 5 L 31 4 z M 33 25 L 33 26 L 34 26 L 34 25 z M 58 11 L 58 12 L 59 12 L 59 11 z M 26 64 L 26 65 L 27 65 L 27 64 z M 9 32 L 9 33 L 10 33 L 10 32 z M 51 48 L 51 49 L 52 49 L 52 48 z M 34 48 L 34 49 L 35 49 L 35 48 z M 38 55 L 38 56 L 39 56 L 39 55 z M 21 13 L 21 14 L 22 14 L 22 13 z M 60 32 L 60 33 L 61 33 L 61 32 z M 59 64 L 59 65 L 60 65 L 60 64 z M 46 23 L 46 24 L 47 24 L 47 23 z M 14 60 L 14 61 L 15 61 L 15 60 z M 35 59 L 35 60 L 36 60 L 36 59 z M 39 52 L 39 53 L 40 53 L 40 52 z M 22 44 L 22 45 L 23 45 L 23 44 z M 64 28 L 64 29 L 65 29 L 65 28 z M 47 52 L 47 53 L 48 53 L 48 52 z M 67 65 L 67 66 L 68 66 L 68 65 z M 54 38 L 54 39 L 55 39 L 55 38 z M 40 21 L 40 22 L 41 22 L 41 21 z M 5 21 L 5 22 L 6 22 L 6 21 z M 43 8 L 43 9 L 44 9 L 44 8 z M 52 24 L 52 25 L 53 25 L 53 24 z M 23 44 L 23 45 L 24 45 L 24 44 z M 6 52 L 6 53 L 7 53 L 7 52 z M 31 60 L 31 61 L 32 61 L 32 60 z M 34 27 L 34 28 L 35 28 L 35 27 z M 60 39 L 60 40 L 61 40 L 61 39 z M 59 57 L 59 58 L 60 58 L 60 57 z M 7 55 L 7 56 L 8 56 L 8 55 z M 10 48 L 10 49 L 11 49 L 11 48 z M 14 39 L 14 40 L 15 40 L 15 39 z M 35 64 L 35 65 L 36 65 L 36 64 z M 39 61 L 39 62 L 40 62 L 40 61 z M 42 42 L 42 43 L 43 43 L 43 42 z M 7 68 L 7 69 L 8 69 L 8 68 z M 47 45 L 47 46 L 48 46 L 48 45 z M 12 25 L 12 26 L 13 26 L 13 25 z M 18 19 L 18 20 L 19 20 L 19 19 z M 40 28 L 40 29 L 41 29 L 41 28 z M 58 21 L 58 22 L 59 22 L 59 21 z M 23 53 L 23 54 L 24 54 L 24 53 z M 6 15 L 6 16 L 7 16 L 7 15 z M 28 40 L 28 41 L 29 41 L 29 40 z M 9 18 L 9 19 L 10 19 L 10 18 z M 31 53 L 31 54 L 32 54 L 32 53 z M 34 34 L 34 35 L 35 35 L 35 34 z M 56 51 L 56 52 L 57 52 L 57 51 z M 63 59 L 63 60 L 64 60 L 64 59 z M 36 23 L 36 24 L 37 24 L 37 23 z M 35 41 L 35 42 L 36 42 L 36 41 z M 39 66 L 39 67 L 40 67 L 40 66 z M 22 30 L 22 31 L 23 31 L 23 30 z M 44 55 L 44 56 L 45 56 L 45 55 z M 47 50 L 47 51 L 48 51 L 48 50 z M 43 62 L 43 63 L 44 63 L 44 62 z M 65 13 L 65 14 L 66 14 L 66 13 z M 30 33 L 30 34 L 31 34 L 31 33 z M 55 19 L 55 20 L 56 20 L 56 19 z M 19 65 L 19 66 L 20 66 L 20 65 z M 6 6 L 6 7 L 7 7 L 7 6 z M 59 15 L 59 16 L 60 16 L 60 15 z M 10 34 L 10 35 L 11 35 L 11 34 z M 68 53 L 68 54 L 69 54 L 69 53 z M 35 38 L 35 39 L 36 39 L 36 38 z M 8 68 L 8 69 L 9 69 L 9 68 z M 64 41 L 64 42 L 65 42 L 65 41 z M 12 7 L 12 8 L 13 8 L 13 7 z M 67 44 L 67 45 L 68 45 L 68 44 z M 37 17 L 37 18 L 38 18 L 38 17 z M 40 18 L 40 19 L 41 19 L 41 18 z M 43 55 L 43 56 L 44 56 L 44 55 z M 65 6 L 65 7 L 66 7 L 66 6 z M 19 62 L 19 63 L 20 63 L 20 62 z M 28 54 L 28 55 L 29 55 L 29 54 z M 34 12 L 34 13 L 35 13 L 35 12 z M 60 60 L 60 61 L 61 61 L 61 60 z M 59 4 L 59 5 L 60 5 L 60 4 z M 7 42 L 7 43 L 8 43 L 8 42 z M 27 63 L 27 64 L 28 64 L 28 63 z M 35 47 L 35 48 L 36 48 L 36 47 z M 39 48 L 39 49 L 40 49 L 40 48 z M 64 64 L 64 65 L 65 65 L 65 64 z M 47 32 L 47 33 L 48 33 L 48 32 z M 12 14 L 12 15 L 13 15 L 13 14 z M 11 54 L 11 55 L 12 55 L 12 54 z M 20 62 L 20 63 L 21 63 L 21 62 z M 62 10 L 62 11 L 63 11 L 63 10 z M 65 31 L 65 32 L 66 32 L 66 31 z M 48 57 L 48 58 L 49 58 L 49 57 z M 52 52 L 52 53 L 53 53 L 53 52 z M 41 22 L 41 23 L 42 23 L 42 22 z M 28 61 L 28 62 L 29 62 L 29 61 z M 53 27 L 53 28 L 54 28 L 54 27 z M 60 67 L 60 68 L 61 68 L 61 67 z M 59 29 L 59 30 L 60 30 L 60 29 z M 7 51 L 7 52 L 8 52 L 8 51 z M 27 52 L 27 53 L 28 53 L 28 52 z M 10 12 L 10 13 L 11 13 L 11 12 z M 36 60 L 36 61 L 37 61 L 37 60 z M 35 20 L 35 21 L 36 21 L 36 20 z M 64 63 L 64 64 L 65 64 L 65 63 z M 47 25 L 47 26 L 48 26 L 48 25 z M 12 53 L 12 54 L 13 54 L 13 53 z M 20 53 L 20 54 L 21 54 L 21 53 z M 40 64 L 40 65 L 41 65 L 41 64 z M 62 5 L 62 6 L 63 6 L 63 5 z M 65 24 L 65 25 L 66 25 L 66 24 z M 19 12 L 19 13 L 20 13 L 20 12 z M 41 31 L 41 32 L 42 32 L 42 31 z M 28 4 L 28 5 L 29 5 L 29 4 z M 53 12 L 53 13 L 54 13 L 54 12 z M 59 26 L 59 27 L 60 27 L 60 26 z M 29 43 L 29 44 L 30 44 L 30 43 z M 10 7 L 10 8 L 11 8 L 11 7 z M 68 10 L 68 11 L 69 11 L 69 10 z M 32 56 L 32 57 L 33 57 L 33 56 z M 61 45 L 61 46 L 62 46 L 62 45 z M 8 65 L 8 66 L 9 66 L 9 65 z M 50 9 L 50 10 L 51 10 L 51 9 z M 20 44 L 20 45 L 21 45 L 21 44 z M 62 12 L 62 13 L 63 13 L 63 12 z M 45 52 L 45 53 L 46 53 L 46 52 z M 48 47 L 48 48 L 49 48 L 49 47 z M 52 50 L 52 51 L 53 51 L 53 50 z M 19 21 L 19 22 L 20 22 L 20 21 z M 41 8 L 41 9 L 42 9 L 42 8 z M 28 11 L 28 12 L 29 12 L 29 11 z M 4 52 L 4 53 L 5 53 L 5 52 z M 29 44 L 29 45 L 30 45 L 30 44 z" id="qr-path" fill="#000000" fill-opacity="1" fill-rule="nonzero" stroke="none"/></svg>